<svg width="800" height="400" viewBox="0 0 800 400" xmlns="http://www.w3.org/2000/svg"><defs><pattern id="satori_pattern_id_0" x="0" y="0" width="1" height="1" patternUnits="objectBoundingBox"><radialGradient id="satori_radial_id_0"><stop offset="0" stop-color="#a3cda3"/><stop offset="0.2" stop-color="#a3cda3"/><stop offset="0.8" stop-color="#000000"/><stop offset="1" stop-color="#000000"/></radialGradient><mask id="satori_mask_id_0"><rect x="0" y="0" width="800" height="400" fill="#fff"/></mask><rect x="0" y="0" width="800" height="400" fill="#000000"/><circle cx="400" cy="200" width="800" height="400" r="447.21359549995793" fill="url(#satori_radial_id_0)" mask="url(#satori_mask_id_0)"/></pattern></defs><mask id="satori_om-id"><rect x="0" y="0" width="800" height="400" fill="#fff"/></mask><rect x="0" y="0" width="800" height="400" fill="url(#satori_pattern_id_0)"/><mask id="satori_om-id-0"><rect x="295" y="134" width="210" height="59" fill="#fff"/></mask><path fill="white" d="M328.8 157.8L328.8 157.8L321.4 157.8Q321.2 156.4 320.5 155.2Q319.9 154.1 318.9 153.3Q317.9 152.5 316.6 152.1Q315.4 151.6 313.9 151.6L313.9 151.6Q311.1 151.6 309.1 153.0Q307.1 154.3 306.0 156.9Q304.9 159.4 304.9 163.0L304.9 163.0Q304.9 166.8 306.0 169.3Q307.1 171.9 309.1 173.2Q311.2 174.4 313.8 174.4L313.8 174.4Q315.3 174.4 316.6 174.1Q317.8 173.7 318.8 172.9Q319.8 172.1 320.5 171.1Q321.1 170.0 321.4 168.6L321.4 168.6L328.8 168.6Q328.5 171.0 327.4 173.2Q326.2 175.5 324.3 177.2Q322.4 178.9 319.7 180.0Q317.0 181.0 313.7 181.0L313.7 181.0Q309.0 181.0 305.3 178.9Q301.7 176.8 299.5 172.7Q297.4 168.7 297.4 163.0L297.4 163.0Q297.4 157.3 299.6 153.3Q301.7 149.3 305.4 147.2Q309.1 145.1 313.7 145.1L313.7 145.1Q316.7 145.1 319.3 146.0Q321.9 146.8 323.9 148.4Q325.9 150.1 327.2 152.4Q328.5 154.8 328.8 157.8ZM341.3 165.4L341.3 165.4L341.3 180.5L334 180.5L334 145.6L341.1 145.6L341.1 158.9L341.4 158.9Q342.3 156.6 344.2 155.3Q346.2 154.0 349.2 154.0L349.2 154.0Q351.9 154.0 354.0 155.2Q356.0 156.3 357.1 158.6Q358.3 160.8 358.2 163.8L358.2 163.8L358.2 180.5L351.0 180.5L351.0 165.1Q351.0 162.7 349.8 161.4Q348.5 160.0 346.3 160.0L346.3 160.0Q344.8 160.0 343.7 160.6Q342.6 161.3 341.9 162.5Q341.3 163.7 341.3 165.4ZM371.4 181.0L371.4 181.0Q368.9 181.0 367.0 180.1Q365.0 179.2 363.9 177.5Q362.7 175.8 362.7 173.2L362.7 173.2Q362.7 171.0 363.5 169.5Q364.3 168.0 365.7 167.1Q367.1 166.2 368.9 165.8Q370.6 165.3 372.6 165.1L372.6 165.1Q374.9 164.9 376.3 164.7Q377.7 164.5 378.3 164.0Q378.9 163.6 378.9 162.8L378.9 162.8L378.9 162.7Q378.9 161.1 377.9 160.2Q376.9 159.3 375.0 159.3L375.0 159.3Q373.1 159.3 371.9 160.1Q370.8 161 370.4 162.3L370.4 162.3L363.7 161.8Q364.2 159.4 365.7 157.6Q367.2 155.9 369.5 154.9Q371.9 154.0 375.1 154.0L375.1 154.0Q377.2 154.0 379.2 154.5Q381.3 155 382.8 156.1Q384.4 157.1 385.3 158.8Q386.2 160.5 386.2 162.8L386.2 162.8L386.2 180.5L379.3 180.5L379.3 176.9L379.1 176.9Q378.5 178.1 377.4 179.0Q376.3 180.0 374.9 180.5Q373.4 181.0 371.4 181.0ZM373.5 176.0L373.5 176.0Q375.1 176.0 376.3 175.3Q377.6 174.7 378.3 173.6Q379.0 172.5 379.0 171.1L379.0 171.1L379.0 168.4Q378.6 168.6 378.0 168.8Q377.4 168.9 376.7 169.1Q376.0 169.2 375.3 169.3Q374.5 169.5 373.9 169.5L373.9 169.5Q372.6 169.7 371.7 170.1Q370.7 170.5 370.2 171.2Q369.7 171.9 369.7 172.9L369.7 172.9Q369.7 174.4 370.8 175.2Q371.8 176.0 373.5 176.0ZM390.0 154.3L405.7 154.3L405.7 159.8L390.0 159.8L390.0 154.3ZM393.6 173.4L393.6 148.0L400.8 148.0L400.8 172.5Q400.8 173.5 401.1 174.0Q401.4 174.6 402.0 174.8Q402.5 175.0 403.3 175.0L403.3 175.0Q403.8 175.0 404.3 174.9Q404.8 174.8 405.1 174.8L405.1 174.8L406.2 180.2Q405.7 180.3 404.7 180.6Q403.7 180.8 402.3 180.9L402.3 180.9Q399.7 181.0 397.7 180.2Q395.7 179.4 394.6 177.7Q393.5 176.0 393.6 173.4L393.6 173.4ZM425.4 153.6L416.6 180.5L408.7 180.5L420.8 145.6L430.3 145.6L442.3 180.5L434.4 180.5L425.7 153.6L425.4 153.6ZM416.1 172.5L416.1 166.8L434.8 166.8L434.8 172.5L416.1 172.5ZM453.6 190.3L446.4 190.3L446.4 154.3L453.5 154.3L453.5 158.7L453.8 158.7Q454.3 157.7 455.2 156.6Q456.1 155.5 457.6 154.7Q459.1 154.0 461.3 154.0L461.3 154.0Q464.2 154.0 466.6 155.5Q469 157.0 470.4 160.0Q471.9 162.9 471.9 167.4L471.9 167.4Q471.9 171.8 470.5 174.8Q469.1 177.8 466.7 179.4Q464.3 180.9 461.3 180.9L461.3 180.9Q459.2 180.9 457.7 180.2Q456.2 179.5 455.3 178.5Q454.3 177.4 453.8 176.3L453.8 176.3L453.6 176.3L453.6 190.3ZM453.5 167.4L453.5 167.4Q453.5 169.7 454.1 171.5Q454.8 173.2 456.0 174.2Q457.2 175.1 459.0 175.1L459.0 175.1Q460.8 175.1 462.0 174.2Q463.2 173.2 463.8 171.4Q464.5 169.7 464.5 167.4L464.5 167.4Q464.5 165.1 463.9 163.4Q463.2 161.7 462.0 160.7Q460.8 159.8 459.0 159.8L459.0 159.8Q457.2 159.8 456.0 160.7Q454.8 161.6 454.1 163.4Q453.5 165.1 453.5 167.4ZM484.0 190.3L476.7 190.3L476.7 154.3L483.9 154.3L483.9 158.7L484.2 158.7Q484.7 157.7 485.6 156.6Q486.5 155.5 488.0 154.7Q489.5 154.0 491.7 154.0L491.7 154.0Q494.5 154.0 496.9 155.5Q499.4 157.0 500.8 160.0Q502.3 162.9 502.3 167.4L502.3 167.4Q502.3 171.8 500.8 174.8Q499.4 177.8 497.0 179.4Q494.6 180.9 491.6 180.9L491.6 180.9Q489.5 180.9 488.0 180.2Q486.6 179.5 485.6 178.5Q484.7 177.4 484.2 176.3L484.2 176.3L484.0 176.3L484.0 190.3ZM483.8 167.4L483.8 167.4Q483.8 169.7 484.5 171.5Q485.1 173.2 486.4 174.2Q487.6 175.1 489.3 175.1L489.3 175.1Q491.1 175.1 492.3 174.2Q493.6 173.2 494.2 171.4Q494.8 169.7 494.8 167.4L494.8 167.4Q494.8 165.1 494.2 163.4Q493.6 161.7 492.4 160.7Q491.1 159.8 489.3 159.8L489.3 159.8Q487.6 159.8 486.3 160.7Q485.1 161.6 484.5 163.4Q483.8 165.1 483.8 167.4Z "/><mask id="satori_om-id-1"><rect x="287" y="208" width="226" height="29" fill="#fff"/></mask><path fill="white" d="M293.9 224.1L287.6 213.8L290.0 213.8L294.9 221.9L295.1 221.9L299.9 213.8L302.3 213.8L296.0 224.1L296.0 231.3L293.9 231.3L293.9 224.1ZM308.3 231.5L308.3 231.5Q306.5 231.5 305.2 230.7Q303.8 229.8 303.1 228.3Q302.3 226.8 302.3 224.8L302.3 224.8Q302.3 222.7 303.1 221.2Q303.8 219.7 305.2 218.8Q306.5 218.0 308.3 218.0L308.3 218.0Q310.0 218.0 311.4 218.8Q312.7 219.7 313.5 221.2Q314.2 222.7 314.2 224.8L314.2 224.8Q314.2 226.8 313.5 228.3Q312.7 229.8 311.4 230.7Q310.0 231.5 308.3 231.5ZM308.3 229.7L308.3 229.7Q309.6 229.7 310.5 229.0Q311.4 228.3 311.8 227.2Q312.2 226.1 312.2 224.8L312.2 224.8Q312.2 223.5 311.8 222.3Q311.4 221.2 310.5 220.5Q309.6 219.8 308.3 219.8L308.3 219.8Q306.9 219.8 306.1 220.5Q305.2 221.2 304.8 222.3Q304.4 223.5 304.4 224.8L304.4 224.8Q304.4 226.1 304.8 227.2Q305.2 228.3 306.1 229.0Q306.9 229.7 308.3 229.7ZM325.5 225.9L325.5 225.9L325.5 218.2L327.5 218.2L327.5 231.3L325.5 231.3L325.5 229.0L325.4 229.0Q324.9 230.0 324.0 230.7Q323.0 231.4 321.5 231.4L321.5 231.4Q320.3 231.4 319.3 230.9Q318.4 230.3 317.8 229.2Q317.3 228.1 317.3 226.5L317.3 226.5L317.3 218.2L319.3 218.2L319.3 226.3Q319.3 227.8 320.1 228.6Q320.9 229.5 322.1 229.5L322.1 229.5Q322.9 229.5 323.7 229.1Q324.5 228.7 325.0 227.9Q325.5 227.1 325.5 225.9ZM333.2 231.3L331.2 231.3L331.2 218.2L333.2 218.2L333.2 220.1L333.3 220.1Q333.7 219.2 334.6 218.6Q335.5 218.0 336.7 218.0L336.7 218.0Q336.9 218.0 337.3 218.0Q337.6 218.0 337.8 218.0L337.8 218.0L337.8 220.0Q337.7 220.0 337.3 220.0Q336.9 219.9 336.5 219.9L336.5 219.9Q335.6 219.9 334.8 220.3Q334.1 220.7 333.7 221.4Q333.2 222.1 333.2 223.0L333.2 223.0L333.2 231.3Z M348.7 213.8L350.8 213.8L350.8 231.3L348.7 231.3L348.7 213.8ZM359.8 231.5L359.8 231.5Q358.0 231.5 356.6 230.7Q355.3 229.8 354.6 228.3Q353.8 226.8 353.8 224.8L353.8 224.8Q353.8 222.7 354.6 221.2Q355.3 219.7 356.6 218.8Q358.0 218.0 359.8 218.0L359.8 218.0Q361.5 218.0 362.9 218.8Q364.2 219.7 364.9 221.2Q365.7 222.7 365.7 224.8L365.7 224.8Q365.7 226.8 364.9 228.3Q364.2 229.8 362.9 230.7Q361.5 231.5 359.8 231.5ZM359.8 229.7L359.8 229.7Q361.1 229.7 362.0 229.0Q362.8 228.3 363.3 227.2Q363.7 226.1 363.7 224.8L363.7 224.8Q363.7 223.5 363.3 222.3Q362.8 221.2 362.0 220.5Q361.1 219.8 359.8 219.8L359.8 219.8Q358.4 219.8 357.5 220.5Q356.7 221.2 356.2 222.3Q355.8 223.5 355.8 224.8L355.8 224.8Q355.8 226.1 356.2 227.2Q356.7 228.3 357.5 229.0Q358.4 229.7 359.8 229.7ZM374.1 231.5L374.1 231.5Q372.2 231.5 370.9 230.7Q369.6 229.8 368.9 228.3Q368.1 226.7 368.1 224.8L368.1 224.8Q368.1 222.8 368.9 221.2Q369.6 219.7 370.9 218.9Q372.3 218.0 374.0 218.0L374.0 218.0Q375.4 218.0 376.5 218.5Q377.6 219.0 378.3 219.9Q379.0 220.9 379.2 222.1L379.2 222.1L377.2 222.1Q377.0 221.2 376.2 220.5Q375.4 219.8 374.1 219.8L374.1 219.8Q372.9 219.8 372.0 220.4Q371.1 221.0 370.6 222.1Q370.1 223.2 370.1 224.7L370.1 224.7Q370.1 226.2 370.6 227.3Q371.1 228.5 372.0 229.1Q372.9 229.7 374.1 229.7L374.1 229.7Q374.9 229.7 375.5 229.4Q376.1 229.2 376.6 228.7Q377.0 228.1 377.2 227.4L377.2 227.4L379.2 227.4Q379.0 228.6 378.4 229.5Q377.7 230.4 376.6 231.0Q375.5 231.5 374.1 231.5ZM386.0 231.6L386.0 231.6Q384.8 231.6 383.7 231.1Q382.7 230.6 382.1 229.7Q381.5 228.8 381.5 227.5L381.5 227.5Q381.5 226.4 382.0 225.7Q382.4 225.0 383.2 224.6Q383.9 224.2 384.8 224.0Q385.7 223.8 386.6 223.7L386.6 223.7Q387.8 223.5 388.6 223.4Q389.3 223.4 389.6 223.2Q390.0 223.0 390.0 222.5L390.0 222.5L390.0 222.4Q390.0 221.2 389.3 220.5Q388.6 219.8 387.2 219.8L387.2 219.8Q385.8 219.8 385.0 220.4Q384.2 221.0 383.8 221.7L383.8 221.7L381.9 221.1Q382.4 219.9 383.3 219.2Q384.1 218.5 385.2 218.3Q386.2 218.0 387.2 218.0L387.2 218.0Q387.8 218.0 388.6 218.1Q389.4 218.3 390.2 218.7Q391.0 219.2 391.5 220.1Q392.0 221.1 392.0 222.6L392.0 222.6L392.0 231.3L390.0 231.3L390.0 229.5L389.9 229.5Q389.7 229.9 389.2 230.4Q388.7 230.9 387.9 231.2Q387.1 231.6 386.0 231.6ZM386.3 229.8L386.3 229.8Q387.5 229.8 388.3 229.3Q389.1 228.8 389.6 228.1Q390.0 227.3 390.0 226.5L390.0 226.5L390.0 224.7Q389.9 224.8 389.4 224.9Q389.0 225.1 388.4 225.2Q387.9 225.3 387.4 225.3Q386.8 225.4 386.5 225.4L386.5 225.4Q385.7 225.5 385.0 225.7Q384.4 226.0 384.0 226.4Q383.5 226.9 383.5 227.6L383.5 227.6Q383.5 228.7 384.3 229.2Q385.1 229.8 386.3 229.8ZM395.7 213.8L397.7 213.8L397.7 231.3L395.7 231.3L395.7 213.8Z M422.4 219.3L422.4 219.3L420.3 219.3Q420.1 218.3 419.7 217.6Q419.2 217.0 418.6 216.5Q417.9 216.0 417.1 215.8Q416.3 215.5 415.4 215.5L415.4 215.5Q413.8 215.5 412.6 216.3Q411.3 217.1 410.5 218.7Q409.8 220.3 409.8 222.5L409.8 222.5Q409.8 224.8 410.5 226.3Q411.3 227.9 412.6 228.7Q413.8 229.5 415.4 229.5L415.4 229.5Q416.3 229.5 417.1 229.3Q417.9 229.0 418.6 228.6Q419.2 228.1 419.7 227.4Q420.1 226.7 420.3 225.8L420.3 225.8L422.4 225.8Q422.2 227.1 421.6 228.2Q420.9 229.2 420.0 230.0Q419.1 230.7 417.9 231.1Q416.7 231.5 415.4 231.5L415.4 231.5Q413.2 231.5 411.4 230.4Q409.7 229.3 408.7 227.3Q407.7 225.3 407.7 222.5L407.7 222.5Q407.7 219.8 408.7 217.8Q409.7 215.7 411.4 214.6Q413.2 213.6 415.4 213.6L415.4 213.6Q416.7 213.6 417.9 213.9Q419.1 214.3 420.0 215.1Q420.9 215.8 421.6 216.9Q422.2 217.9 422.4 219.3ZM427.6 223.4L427.6 223.4L427.6 231.3L425.6 231.3L425.6 213.8L427.6 213.8L427.6 220.2L427.8 220.2Q428.2 219.2 429.1 218.6Q430.1 218.0 431.6 218.0L431.6 218.0Q433.0 218.0 434.0 218.5Q435.0 219.1 435.5 220.1Q436.1 221.2 436.1 222.9L436.1 222.9L436.1 231.3L434.1 231.3L434.1 223.1Q434.1 221.5 433.3 220.7Q432.5 219.8 431.0 219.8L431.0 219.8Q430.0 219.8 429.3 220.2Q428.5 220.6 428.0 221.4Q427.6 222.2 427.6 223.4ZM443.6 231.6L443.6 231.6Q442.4 231.6 441.4 231.1Q440.3 230.6 439.7 229.7Q439.1 228.8 439.1 227.5L439.1 227.5Q439.1 226.4 439.6 225.7Q440.0 225.0 440.8 224.6Q441.5 224.2 442.4 224.0Q443.3 223.8 444.2 223.7L444.2 223.7Q445.4 223.5 446.2 223.4Q446.9 223.4 447.3 223.2Q447.6 223.0 447.6 222.5L447.6 222.5L447.6 222.4Q447.6 221.2 446.9 220.5Q446.2 219.8 444.8 219.8L444.8 219.8Q443.4 219.8 442.6 220.4Q441.8 221.0 441.4 221.7L441.4 221.7L439.5 221.1Q440.0 219.9 440.9 219.2Q441.7 218.5 442.8 218.3Q443.8 218.0 444.8 218.0L444.8 218.0Q445.4 218.0 446.2 218.1Q447.0 218.3 447.8 218.7Q448.6 219.2 449.1 220.1Q449.6 221.1 449.6 222.6L449.6 222.6L449.6 231.3L447.6 231.3L447.6 229.5L447.5 229.5Q447.3 229.9 446.8 230.4Q446.3 230.9 445.5 231.2Q444.8 231.6 443.6 231.6ZM443.9 229.8L443.9 229.8Q445.1 229.8 445.9 229.3Q446.8 228.8 447.2 228.1Q447.6 227.3 447.6 226.5L447.6 226.5L447.6 224.7Q447.5 224.8 447.0 224.9Q446.6 225.1 446.1 225.2Q445.5 225.3 445.0 225.3Q444.4 225.4 444.1 225.4L444.1 225.4Q443.3 225.5 442.7 225.7Q442.0 226.0 441.6 226.4Q441.2 226.9 441.2 227.6L441.2 227.6Q441.2 228.7 441.9 229.2Q442.7 229.8 443.9 229.8ZM452.2 218.2L459.0 218.2L459.0 219.9L452.2 219.9L452.2 218.2ZM454.2 228.0L454.2 215.0L456.2 215.0L456.2 227.5Q456.2 228.4 456.4 228.8Q456.7 229.2 457.1 229.3Q457.5 229.5 457.9 229.5L457.9 229.5Q458.3 229.5 458.5 229.4Q458.7 229.4 458.8 229.4L458.8 229.4L459.2 231.2Q459.0 231.3 458.7 231.3Q458.3 231.4 457.7 231.4L457.7 231.4Q456.9 231.4 456.1 231.1Q455.2 230.7 454.7 229.9Q454.2 229.2 454.2 228.0L454.2 228.0ZM468.2 216.6L463.0 231.3L460.8 231.3L467.2 213.8L469.4 213.8L475.8 231.3L473.6 231.3L468.4 216.6L468.2 216.6ZM463.8 226.3L463.8 224.4L472.8 224.4L472.8 226.3L463.8 226.3ZM480.3 236.2L478.3 236.2L478.3 218.2L480.2 218.2L480.2 220.2L480.4 220.2Q480.7 219.9 481.0 219.4Q481.4 218.8 482.2 218.4Q482.9 218.0 484.2 218.0L484.2 218.0Q485.9 218.0 487.1 218.8Q488.4 219.6 489.1 221.2Q489.8 222.7 489.8 224.7L489.8 224.7Q489.8 226.8 489.1 228.3Q488.4 229.9 487.1 230.7Q485.9 231.5 484.3 231.5L484.3 231.5Q483.0 231.5 482.2 231.1Q481.5 230.7 481.1 230.1Q480.7 229.6 480.4 229.2L480.4 229.2L480.3 229.2L480.3 236.2ZM480.2 224.7L480.2 224.7Q480.2 226.2 480.7 227.3Q481.1 228.4 481.9 229.1Q482.8 229.7 484.0 229.7L484.0 229.7Q485.2 229.7 486.1 229.0Q486.9 228.4 487.4 227.2Q487.8 226.1 487.8 224.7L487.8 224.7Q487.8 223.3 487.4 222.2Q487.0 221.1 486.1 220.4Q485.3 219.8 484.0 219.8L484.0 219.8Q482.8 219.8 481.9 220.4Q481.1 221.0 480.7 222.1Q480.2 223.2 480.2 224.7ZM494.9 236.2L492.9 236.2L492.9 218.2L494.8 218.2L494.8 220.2L495.1 220.2Q495.3 219.9 495.7 219.4Q496.1 218.8 496.8 218.4Q497.6 218.0 498.8 218.0L498.8 218.0Q500.5 218.0 501.8 218.8Q503.0 219.6 503.7 221.2Q504.4 222.7 504.4 224.7L504.4 224.7Q504.4 226.8 503.7 228.3Q503.0 229.9 501.8 230.7Q500.5 231.5 498.9 231.5L498.9 231.5Q497.6 231.5 496.9 231.1Q496.1 230.7 495.7 230.1Q495.3 229.6 495.1 229.2L495.1 229.2L494.9 229.2L494.9 236.2ZM494.9 224.7L494.9 224.7Q494.9 226.2 495.3 227.3Q495.7 228.4 496.6 229.1Q497.4 229.7 498.6 229.7L498.6 229.7Q499.9 229.7 500.7 229.0Q501.6 228.4 502.0 227.2Q502.4 226.1 502.4 224.7L502.4 224.7Q502.4 223.3 502.0 222.2Q501.6 221.1 500.7 220.4Q499.9 219.8 498.6 219.8L498.6 219.8Q497.4 219.8 496.5 220.4Q495.7 221.0 495.3 222.1Q494.9 223.2 494.9 224.7ZM508.3 228.9L510.5 228.9L510.4 229.8Q510.2 230.8 509.9 231.9Q509.6 233.0 509.3 234.0Q509 234.9 508.8 235.5L508.8 235.5L507.3 235.5Q507.4 235.0 507.6 234.1Q507.7 233.2 507.9 232.1Q508.1 231.0 508.2 229.8L508.2 229.8L508.3 228.9Z "/><mask id="satori_om-id-3"><rect x="198" y="237" width="405" height="29" fill="#fff"/></mask><path fill="white" d="M214.2 248.3L214.2 248.3L212.0 248.3Q211.9 247.3 211.4 246.6Q210.9 246.0 210.3 245.5Q209.6 245.0 208.8 244.8Q208.0 244.5 207.1 244.5L207.1 244.5Q205.6 244.5 204.3 245.3Q203.0 246.1 202.2 247.7Q201.5 249.3 201.5 251.5L201.5 251.5Q201.5 253.8 202.2 255.3Q203.0 256.9 204.3 257.7Q205.6 258.5 207.1 258.5L207.1 258.5Q208.0 258.5 208.8 258.3Q209.6 258.0 210.3 257.6Q210.9 257.1 211.4 256.4Q211.9 255.7 212.0 254.8L212.0 254.8L214.2 254.8Q213.9 256.1 213.3 257.2Q212.7 258.2 211.7 259.0Q210.8 259.7 209.6 260.1Q208.5 260.5 207.1 260.5L207.1 260.5Q204.9 260.5 203.2 259.4Q201.4 258.3 200.4 256.3Q199.4 254.3 199.4 251.5L199.4 251.5Q199.4 248.8 200.4 246.8Q201.4 244.7 203.2 243.6Q204.9 242.6 207.1 242.6L207.1 242.6Q208.5 242.6 209.6 242.9Q210.8 243.3 211.7 244.1Q212.7 244.8 213.3 245.9Q213.9 246.9 214.2 248.3ZM219.3 252.4L219.3 252.4L219.3 260.3L217.3 260.3L217.3 242.8L219.3 242.8L219.3 249.2L219.5 249.2Q219.9 248.2 220.9 247.6Q221.8 247.0 223.3 247.0L223.3 247.0Q224.7 247.0 225.7 247.5Q226.7 248.1 227.2 249.1Q227.8 250.2 227.8 251.9L227.8 251.9L227.8 260.3L225.8 260.3L225.8 252.1Q225.8 250.5 225.0 249.7Q224.2 248.8 222.7 248.8L222.7 248.8Q221.8 248.8 221.0 249.2Q220.2 249.6 219.8 250.4Q219.3 251.2 219.3 252.4ZM235.3 260.6L235.3 260.6Q234.1 260.6 233.1 260.1Q232.1 259.6 231.5 258.7Q230.9 257.8 230.9 256.5L230.9 256.5Q230.9 255.4 231.3 254.7Q231.8 254.0 232.5 253.6Q233.2 253.2 234.1 253.0Q235.0 252.8 235.9 252.7L235.9 252.7Q237.1 252.5 237.9 252.4Q238.6 252.4 239.0 252.2Q239.3 252.0 239.3 251.5L239.3 251.5L239.3 251.4Q239.3 250.2 238.6 249.5Q237.9 248.8 236.6 248.8L236.6 248.8Q235.1 248.8 234.3 249.4Q233.5 250.0 233.1 250.7L233.1 250.7L231.2 250.1Q231.8 248.9 232.6 248.2Q233.5 247.5 234.5 247.3Q235.5 247.0 236.5 247.0L236.5 247.0Q237.1 247.0 237.9 247.1Q238.8 247.3 239.5 247.7Q240.3 248.2 240.8 249.1Q241.3 250.1 241.3 251.6L241.3 251.6L241.3 260.3L239.3 260.3L239.3 258.5L239.2 258.5Q239.0 258.9 238.5 259.4Q238.1 259.9 237.3 260.2Q236.5 260.6 235.3 260.6ZM235.6 258.8L235.6 258.8Q236.8 258.8 237.7 258.3Q238.5 257.8 238.9 257.1Q239.3 256.3 239.3 255.5L239.3 255.5L239.3 253.7Q239.2 253.8 238.8 253.9Q238.3 254.1 237.8 254.2Q237.2 254.3 236.7 254.3Q236.2 254.4 235.8 254.4L235.8 254.4Q235.1 254.5 234.4 254.7Q233.7 255.0 233.3 255.4Q232.9 255.9 232.9 256.6L232.9 256.6Q232.9 257.7 233.7 258.2Q234.4 258.8 235.6 258.8ZM243.9 247.2L250.7 247.2L250.7 248.9L243.9 248.9L243.9 247.2ZM245.9 257.0L245.9 244.0L247.9 244.0L247.9 256.5Q247.9 257.4 248.2 257.8Q248.4 258.2 248.8 258.3Q249.2 258.5 249.6 258.5L249.6 258.5Q250.0 258.5 250.2 258.4Q250.4 258.4 250.5 258.4L250.5 258.4L250.9 260.2Q250.7 260.3 250.4 260.3Q250.0 260.4 249.4 260.4L249.4 260.4Q248.6 260.4 247.8 260.1Q247.0 259.7 246.4 258.9Q245.9 258.2 245.9 257.0L245.9 257.0Z M265.4 260.3L263.5 260.3L259.5 247.2L261.6 247.2L264.4 257.2L264.5 257.2L267.3 247.2L269.5 247.2L272.3 257.1L272.4 257.1L275.2 247.2L277.3 247.2L273.3 260.3L271.4 260.3L268.5 250.2L268.3 250.2L265.4 260.3ZM282 260.3L280.0 260.3L280.0 247.2L282 247.2L282 260.3ZM281.0 245.0L281.0 245.0Q280.4 245.0 280.0 244.6Q279.6 244.2 279.6 243.6L279.6 243.6Q279.6 243.1 280.0 242.7Q280.4 242.3 281.0 242.3L281.0 242.3Q281.6 242.3 282.0 242.7Q282.4 243.1 282.4 243.6L282.4 243.6Q282.4 244.2 282.0 244.6Q281.6 245.0 281.0 245.0ZM284.6 247.2L291.4 247.2L291.4 248.9L284.6 248.9L284.6 247.2ZM286.6 257.0L286.6 244.0L288.6 244.0L288.6 256.5Q288.6 257.4 288.8 257.8Q289.1 258.2 289.5 258.3Q289.9 258.5 290.3 258.5L290.3 258.5Q290.7 258.5 290.9 258.4Q291.1 258.4 291.2 258.4L291.2 258.4L291.6 260.2Q291.4 260.3 291.0 260.3Q290.7 260.4 290.1 260.4L290.1 260.4Q289.3 260.4 288.4 260.1Q287.6 259.7 287.1 258.9Q286.6 258.2 286.6 257.0L286.6 257.0ZM296.7 252.4L296.7 252.4L296.7 260.3L294.7 260.3L294.7 242.8L296.7 242.8L296.7 249.2L296.9 249.2Q297.3 248.2 298.2 247.6Q299.2 247.0 300.7 247.0L300.7 247.0Q302.1 247.0 303.1 247.5Q304.1 248.1 304.6 249.1Q305.2 250.2 305.2 251.9L305.2 251.9L305.2 260.3L303.2 260.3L303.2 252.1Q303.2 250.5 302.4 249.7Q301.6 248.8 300.1 248.8L300.1 248.8Q299.1 248.8 298.4 249.2Q297.6 249.6 297.1 250.4Q296.7 251.2 296.7 252.4Z M320.8 260.5L320.8 260.5Q318.9 260.5 317.6 259.7Q316.2 258.8 315.5 257.3Q314.7 255.8 314.7 253.8L314.7 253.8Q314.7 251.8 315.5 250.3Q316.2 248.7 317.5 247.9Q318.9 247.0 320.6 247.0L320.6 247.0Q321.6 247.0 322.6 247.3Q323.6 247.7 324.5 248.4Q325.3 249.2 325.8 250.4Q326.3 251.7 326.3 253.5L326.3 253.5L326.3 254.4L316.2 254.4L316.2 252.6L324.2 252.6Q324.2 251.5 323.8 250.7Q323.3 249.8 322.5 249.3Q321.7 248.8 320.6 248.8L320.6 248.8Q319.4 248.8 318.5 249.4Q317.7 250.0 317.2 250.9Q316.7 251.9 316.7 253.0L316.7 253.0L316.7 254.1Q316.7 255.6 317.3 256.6Q317.8 257.7 318.7 258.2Q319.6 258.7 320.8 258.7L320.8 258.7Q321.6 258.7 322.3 258.5Q322.9 258.3 323.4 257.8Q323.8 257.4 324.1 256.7L324.1 256.7L326.0 257.2Q325.7 258.2 325.0 259.0Q324.3 259.7 323.2 260.1Q322.2 260.5 320.8 260.5ZM337.4 247.2L339.6 247.2L334.8 260.3L332.7 260.3L327.9 247.2L330.1 247.2L333.7 257.6L333.8 257.6L337.4 247.2ZM347.3 260.5L347.3 260.5Q345.4 260.5 344.0 259.7Q342.7 258.8 341.9 257.3Q341.2 255.8 341.2 253.8L341.2 253.8Q341.2 251.8 341.9 250.3Q342.7 248.7 344.0 247.9Q345.3 247.0 347.1 247.0L347.1 247.0Q348.1 247.0 349.1 247.3Q350.1 247.7 350.9 248.4Q351.7 249.2 352.2 250.4Q352.7 251.7 352.7 253.5L352.7 253.5L352.7 254.4L342.6 254.4L342.6 252.6L350.7 252.6Q350.7 251.5 350.2 250.7Q349.8 249.8 349.0 249.3Q348.2 248.8 347.1 248.8L347.1 248.8Q345.9 248.8 345.0 249.4Q344.1 250.0 343.7 250.9Q343.2 251.9 343.2 253.0L343.2 253.0L343.2 254.1Q343.2 255.6 343.7 256.6Q344.2 257.7 345.1 258.2Q346.1 258.7 347.3 258.7L347.3 258.7Q348.1 258.7 348.7 258.5Q349.4 258.3 349.8 257.8Q350.3 257.4 350.6 256.7L350.6 256.7L352.5 257.2Q352.2 258.2 351.5 259.0Q350.7 259.7 349.7 260.1Q348.6 260.5 347.3 260.5ZM357.8 260.3L355.8 260.3L355.8 247.2L357.7 247.2L357.7 249.1L357.9 249.1Q358.2 248.2 359.1 247.6Q360.1 247.0 361.3 247.0L361.3 247.0Q361.5 247.0 361.8 247.0Q362.1 247.0 362.3 247.0L362.3 247.0L362.3 249.0Q362.2 249.0 361.9 249.0Q361.5 248.9 361.1 248.9L361.1 248.9Q360.1 248.9 359.4 249.3Q358.6 249.7 358.2 250.4Q357.8 251.1 357.8 252.0L357.8 252.0L357.8 260.3ZM366.4 265.2L366.4 265.2Q365.9 265.2 365.5 265.1Q365.1 265.0 364.9 264.9L364.9 264.9L365.5 263.1Q366.2 263.3 366.8 263.3Q367.3 263.2 367.8 262.8Q368.2 262.3 368.6 261.3L368.6 261.3L368.9 260.3L364.1 247.2L366.3 247.2L369.9 257.6L370.0 257.6L373.6 247.2L375.8 247.2L370.3 262.2Q369.9 263.2 369.3 263.8Q368.8 264.5 368.0 264.8Q367.3 265.2 366.4 265.2ZM383.3 260.5L383.3 260.5Q381.5 260.5 380.2 259.7Q378.9 258.8 378.1 257.3Q377.4 255.8 377.4 253.8L377.4 253.8Q377.4 251.7 378.1 250.2Q378.9 248.7 380.2 247.8Q381.5 247.0 383.3 247.0L383.3 247.0Q385.1 247.0 386.4 247.8Q387.8 248.7 388.5 250.2Q389.3 251.7 389.3 253.8L389.3 253.8Q389.3 255.8 388.5 257.3Q387.8 258.8 386.4 259.7Q385.1 260.5 383.3 260.5ZM383.3 258.7L383.3 258.7Q384.7 258.7 385.5 258.0Q386.4 257.3 386.8 256.2Q387.2 255.1 387.2 253.8L387.2 253.8Q387.2 252.5 386.8 251.3Q386.4 250.2 385.5 249.5Q384.7 248.8 383.3 248.8L383.3 248.8Q382.0 248.8 381.1 249.5Q380.2 250.2 379.8 251.3Q379.4 252.5 379.4 253.8L379.4 253.8Q379.4 255.1 379.8 256.2Q380.2 257.3 381.1 258.0Q382.0 258.7 383.3 258.7ZM394.3 252.4L394.3 252.4L394.3 260.3L392.3 260.3L392.3 247.2L394.3 247.2L394.3 249.2L394.4 249.2Q394.9 248.2 395.8 247.6Q396.8 247.0 398.3 247.0L398.3 247.0Q399.6 247.0 400.6 247.5Q401.6 248.1 402.1 249.2Q402.7 250.3 402.7 251.9L402.7 251.9L402.7 260.3L400.7 260.3L400.7 252.1Q400.7 250.5 399.9 249.7Q399.1 248.8 397.7 248.8L397.7 248.8Q396.7 248.8 396.0 249.2Q395.2 249.6 394.8 250.4Q394.3 251.2 394.3 252.4ZM411.9 260.5L411.9 260.5Q410.0 260.5 408.6 259.7Q407.2 258.8 406.5 257.3Q405.8 255.8 405.8 253.8L405.8 253.8Q405.8 251.8 406.5 250.3Q407.2 248.7 408.5 247.9Q409.9 247.0 411.6 247.0L411.6 247.0Q412.7 247.0 413.7 247.3Q414.7 247.7 415.5 248.4Q416.3 249.2 416.8 250.4Q417.3 251.7 417.3 253.5L417.3 253.5L417.3 254.4L407.2 254.4L407.2 252.6L415.2 252.6Q415.2 251.5 414.8 250.7Q414.3 249.8 413.5 249.3Q412.7 248.8 411.6 248.8L411.6 248.8Q410.4 248.8 409.6 249.4Q408.7 250.0 408.2 250.9Q407.8 251.9 407.8 253.0L407.8 253.0L407.8 254.1Q407.8 255.6 408.3 256.6Q408.8 257.7 409.7 258.2Q410.6 258.7 411.9 258.7L411.9 258.7Q412.6 258.7 413.3 258.5Q413.9 258.3 414.4 257.8Q414.9 257.4 415.1 256.7L415.1 256.7L417.1 257.2Q416.8 258.2 416.0 259.0Q415.3 259.7 414.2 260.1Q413.2 260.5 411.9 260.5Z M430.1 260.3L428.0 260.3L428.0 247.2L430.1 247.2L430.1 260.3ZM429.1 245.0L429.1 245.0Q428.5 245.0 428.1 244.6Q427.6 244.2 427.6 243.6L427.6 243.6Q427.6 243.1 428.1 242.7Q428.5 242.3 429.1 242.3L429.1 242.3Q429.7 242.3 430.1 242.7Q430.5 243.1 430.5 243.6L430.5 243.6Q430.5 244.2 430.1 244.6Q429.7 245.0 429.1 245.0ZM435.8 252.4L435.8 252.4L435.8 260.3L433.7 260.3L433.7 247.2L435.7 247.2L435.7 249.2L435.9 249.2Q436.3 248.2 437.3 247.6Q438.2 247.0 439.7 247.0L439.7 247.0Q441 247.0 442.0 247.5Q443.0 248.1 443.5 249.2Q444.1 250.3 444.1 251.9L444.1 251.9L444.1 260.3L442.1 260.3L442.1 252.1Q442.1 250.5 441.3 249.7Q440.5 248.8 439.1 248.8L439.1 248.8Q438.1 248.8 437.4 249.2Q436.6 249.6 436.2 250.4Q435.8 251.2 435.8 252.4Z M455.8 265.2L455.8 265.2Q455.3 265.2 454.9 265.1Q454.5 265.0 454.4 264.9L454.4 264.9L454.9 263.1Q455.6 263.3 456.2 263.3Q456.7 263.2 457.2 262.8Q457.6 262.3 458.0 261.3L458.0 261.3L458.4 260.3L453.5 247.2L455.7 247.2L459.3 257.6L459.4 257.6L463.1 247.2L465.2 247.2L459.7 262.2Q459.3 263.2 458.8 263.8Q458.2 264.5 457.5 264.8Q456.7 265.2 455.8 265.2ZM472.7 260.5L472.7 260.5Q471.0 260.5 469.6 259.7Q468.3 258.8 467.6 257.3Q466.8 255.8 466.8 253.8L466.8 253.8Q466.8 251.7 467.6 250.2Q468.3 248.7 469.6 247.8Q471.0 247.0 472.7 247.0L472.7 247.0Q474.5 247.0 475.8 247.8Q477.2 248.7 477.9 250.2Q478.7 251.7 478.7 253.8L478.7 253.8Q478.7 255.8 477.9 257.3Q477.2 258.8 475.8 259.7Q474.5 260.5 472.7 260.5ZM472.7 258.7L472.7 258.7Q474.1 258.7 475.0 258.0Q475.8 257.3 476.2 256.2Q476.7 255.1 476.7 253.8L476.7 253.8Q476.7 252.5 476.2 251.3Q475.8 250.2 475.0 249.5Q474.1 248.8 472.7 248.8L472.7 248.8Q471.4 248.8 470.5 249.5Q469.7 250.2 469.2 251.3Q468.8 252.5 468.8 253.8L468.8 253.8Q468.8 255.1 469.2 256.2Q469.7 257.3 470.5 258.0Q471.4 258.7 472.7 258.7ZM490.0 254.9L490.0 254.9L490.0 247.2L492 247.2L492 260.3L490.0 260.3L490.0 258.0L489.9 258.0Q489.4 259.0 488.4 259.7Q487.4 260.4 486.0 260.4L486.0 260.4Q484.7 260.4 483.8 259.9Q482.8 259.3 482.3 258.2Q481.7 257.1 481.7 255.5L481.7 255.5L481.7 247.2L483.8 247.2L483.8 255.3Q483.8 256.8 484.6 257.6Q485.4 258.5 486.6 258.5L486.6 258.5Q487.4 258.5 488.1 258.1Q488.9 257.7 489.5 256.9Q490.0 256.1 490.0 254.9ZM497.7 260.3L495.7 260.3L495.7 247.2L497.6 247.2L497.6 249.1L497.8 249.1Q498.1 248.2 499.1 247.6Q500.0 247.0 501.2 247.0L501.2 247.0Q501.4 247.0 501.7 247.0Q502.1 247.0 502.2 247.0L502.2 247.0L502.2 249.0Q502.1 249.0 501.8 249.0Q501.4 248.9 501 248.9L501 248.9Q500.0 248.9 499.3 249.3Q498.6 249.7 498.1 250.4Q497.7 251.1 497.7 252.0L497.7 252.0L497.7 260.3Z M513.9 252.4L513.9 252.4L513.9 260.3L511.8 260.3L511.8 247.2L513.8 247.2L513.8 249.2L514.0 249.2Q514.4 248.2 515.4 247.6Q516.3 247.0 517.8 247.0L517.8 247.0Q519.1 247.0 520.1 247.5Q521.1 248.1 521.7 249.2Q522.2 250.3 522.2 251.9L522.2 251.9L522.2 260.3L520.2 260.3L520.2 252.1Q520.2 250.5 519.4 249.7Q518.6 248.8 517.2 248.8L517.2 248.8Q516.2 248.8 515.5 249.2Q514.7 249.6 514.3 250.4Q513.9 251.2 513.9 252.4ZM531.4 260.5L531.4 260.5Q529.5 260.5 528.1 259.7Q526.7 258.8 526.0 257.3Q525.3 255.8 525.3 253.8L525.3 253.8Q525.3 251.8 526.0 250.3Q526.7 248.7 528.1 247.9Q529.4 247.0 531.2 247.0L531.2 247.0Q532.2 247.0 533.2 247.3Q534.2 247.7 535.0 248.4Q535.8 249.2 536.3 250.4Q536.8 251.7 536.8 253.5L536.8 253.5L536.8 254.4L526.7 254.4L526.7 252.6L534.8 252.6Q534.8 251.5 534.3 250.7Q533.9 249.8 533.1 249.3Q532.3 248.8 531.2 248.8L531.2 248.8Q530.0 248.8 529.1 249.4Q528.2 250.0 527.8 250.9Q527.3 251.9 527.3 253.0L527.3 253.0L527.3 254.1Q527.3 255.6 527.8 256.6Q528.3 257.7 529.2 258.2Q530.2 258.7 531.4 258.7L531.4 258.7Q532.2 258.7 532.8 258.5Q533.5 258.3 533.9 257.8Q534.4 257.4 534.6 256.7L534.6 256.7L536.6 257.2Q536.3 258.2 535.6 259.0Q534.8 259.7 533.8 260.1Q532.7 260.5 531.4 260.5ZM538.8 247.2L545.6 247.2L545.6 248.9L538.8 248.9L538.8 247.2ZM540.8 257.0L540.8 244.0L542.8 244.0L542.8 256.5Q542.8 257.4 543.0 257.8Q543.3 258.2 543.7 258.3Q544.1 258.5 544.5 258.5L544.5 258.5Q544.8 258.5 545.0 258.4Q545.3 258.4 545.4 258.4L545.4 258.4L545.8 260.2Q545.6 260.3 545.2 260.3Q544.9 260.4 544.3 260.4L544.3 260.4Q543.4 260.4 542.6 260.1Q541.8 259.7 541.3 258.9Q540.8 258.2 540.8 257.0L540.8 257.0ZM553.5 260.3L551.6 260.3L547.6 247.2L549.7 247.2L552.5 257.2L552.6 257.2L555.4 247.2L557.6 247.2L560.4 257.1L560.5 257.1L563.3 247.2L565.4 247.2L561.4 260.3L559.5 260.3L556.6 250.2L556.4 250.2L553.5 260.3ZM573.0 260.5L573.0 260.5Q571.2 260.5 569.9 259.7Q568.5 258.8 567.8 257.3Q567.0 255.8 567.0 253.8L567.0 253.8Q567.0 251.7 567.8 250.2Q568.5 248.7 569.9 247.8Q571.2 247.0 573.0 247.0L573.0 247.0Q574.7 247.0 576.1 247.8Q577.4 248.7 578.2 250.2Q578.9 251.7 578.9 253.8L578.9 253.8Q578.9 255.8 578.2 257.3Q577.4 258.8 576.1 259.7Q574.7 260.5 573.0 260.5ZM573.0 258.7L573.0 258.7Q574.3 258.7 575.2 258.0Q576.1 257.3 576.5 256.2Q576.9 255.1 576.9 253.8L576.9 253.8Q576.9 252.5 576.5 251.3Q576.1 250.2 575.2 249.5Q574.3 248.8 573.0 248.8L573.0 248.8Q571.6 248.8 570.8 249.5Q569.9 250.2 569.5 251.3Q569.0 252.5 569.0 253.8L569.0 253.8Q569.0 255.1 569.5 256.2Q569.9 257.3 570.8 258.0Q571.6 258.7 573.0 258.7ZM584.0 260.3L582.0 260.3L582.0 247.2L583.9 247.2L583.9 249.1L584.0 249.1Q584.4 248.2 585.3 247.6Q586.3 247.0 587.5 247.0L587.5 247.0Q587.7 247.0 588.0 247.0Q588.3 247.0 588.5 247.0L588.5 247.0L588.5 249.0Q588.4 249.0 588.0 249.0Q587.7 248.9 587.3 248.9L587.3 248.9Q586.3 248.9 585.6 249.3Q584.8 249.7 584.4 250.4Q584.0 251.1 584.0 252.0L584.0 252.0L584.0 260.3ZM595.1 253.3L592.8 255.5L592.7 253.0L593.1 253.0L598.9 247.2L601.4 247.2L595.3 253.3L595.1 253.3ZM592.9 260.3L590.9 260.3L590.9 242.8L592.9 242.8L592.9 260.3ZM601.8 260.3L599.2 260.3L594.1 253.8L595.5 252.4L601.8 260.3Z "/></svg>