<svg width="800" height="400" viewBox="0 0 800 400" xmlns="http://www.w3.org/2000/svg"><defs><pattern id="satori_pattern_id_0" x="0" y="0" width="1" height="1" patternUnits="objectBoundingBox"><linearGradient id="satori_biid_0" x1="0" y1="0" x2="1" y2="0" spreadMethod="pad"><stop offset="0%" stop-color="#000000"/><stop offset="100%" stop-color="#0d1b2a"/></linearGradient><rect x="0" y="0" width="800" height="400" fill="url(#satori_biid_0)"/></pattern></defs><mask id="satori_om-id"><rect x="0" y="0" width="800" height="400" fill="#fff"/></mask><rect x="0" y="0" width="800" height="400" fill="url(#satori_pattern_id_0)"/><mask id="satori_om-id-0"><rect x="221" y="149" width="358" height="58" fill="#fff"/></mask><path fill="white" d="M256.1 178.0L256.1 178.0Q256.1 183.8 254.0 187.8Q251.8 191.8 248.1 193.9Q244.4 196.0 239.8 196.0L239.8 196.0Q235.1 196.0 231.4 193.9Q227.7 191.8 225.6 187.7Q223.4 183.7 223.4 178.0L223.4 178.0Q223.4 172.3 225.6 168.3Q227.7 164.3 231.4 162.2Q235.1 160.1 239.8 160.1L239.8 160.1Q244.4 160.1 248.1 162.2Q251.8 164.3 254.0 168.3Q256.1 172.3 256.1 178.0ZM248.6 178.0L248.6 178.0Q248.6 174.3 247.5 171.8Q246.4 169.3 244.4 168.0Q242.4 166.6 239.8 166.6L239.8 166.6Q237.1 166.6 235.1 168.0Q233.1 169.3 232.0 171.8Q230.9 174.3 230.9 178.0L230.9 178.0Q230.9 181.7 232.0 184.3Q233.1 186.8 235.1 188.1Q237.1 189.4 239.8 189.4L239.8 189.4Q242.4 189.4 244.4 188.1Q246.4 186.8 247.5 184.3Q248.6 181.7 248.6 178.0ZM287.6 170.6L280.5 170.6Q280.3 168.6 278.7 167.4Q277.2 166.3 274.5 166.3L274.5 166.3Q272.7 166.3 271.5 166.8Q270.2 167.3 269.6 168.2Q268.9 169.1 268.9 170.2L268.9 170.2Q268.9 171.1 269.3 171.8Q269.8 172.5 270.5 173.0Q271.3 173.5 272.3 173.9Q273.3 174.3 274.5 174.5L274.5 174.5L277.6 175.3Q279.9 175.8 281.8 176.6Q283.7 177.5 285.1 178.7Q286.5 180.0 287.3 181.7Q288.0 183.3 288.1 185.5L288.1 185.5Q288.0 188.7 286.4 191.1Q284.8 193.4 281.8 194.7Q278.8 196.0 274.5 196.0L274.5 196.0Q270.3 196.0 267.2 194.7Q264.0 193.4 262.3 190.9Q260.5 188.3 260.4 184.5L260.4 184.5L267.6 184.5Q267.7 186.3 268.6 187.5Q269.5 188.6 271.0 189.2Q272.5 189.8 274.4 189.8L274.4 189.8Q276.3 189.8 277.7 189.3Q279.1 188.7 279.8 187.7Q280.6 186.8 280.6 185.5L280.6 185.5Q280.6 184.3 279.9 183.5Q279.2 182.7 277.9 182.2Q276.6 181.6 274.7 181.1L274.7 181.1L270.9 180.2Q266.5 179.1 263.9 176.8Q261.3 174.6 261.4 170.7L261.4 170.7Q261.3 167.5 263.1 165.1Q264.8 162.8 267.8 161.4Q270.8 160.1 274.6 160.1L274.6 160.1Q278.5 160.1 281.4 161.4Q284.3 162.8 285.9 165.1Q287.5 167.5 287.6 170.6L287.6 170.6ZM293 160.6L300.4 160.6L300.4 195.5L293 195.5L293 160.6ZM328.3 160.6L335.7 160.6L335.7 195.5L329.3 195.5L314.1 173.5L313.8 173.5L313.8 195.5L306.5 195.5L306.5 160.6L312.9 160.6L328.0 182.5L328.3 182.5L328.3 160.6ZM351.1 166.7L340.4 166.7L340.4 160.6L369.1 160.6L369.1 166.7L358.4 166.7L358.4 195.5L351.1 195.5L351.1 166.7Z M400.0 195.5L392.8 195.5L382.8 160.6L390.9 160.6L396.7 184.8L397.0 184.8L403.3 160.6L410.2 160.6L416.6 184.9L416.9 184.9L422.7 160.6L430.7 160.6L420.8 195.5L413.6 195.5L406.9 172.7L406.6 172.7L400.0 195.5ZM443.6 196.0L443.6 196.0Q439.6 196.0 436.7 194.4Q433.8 192.7 432.2 189.7Q430.7 186.7 430.7 182.5L430.7 182.5Q430.7 178.5 432.2 175.4Q433.8 172.4 436.7 170.7Q439.5 169.0 443.4 169.0L443.4 169.0Q445.9 169.0 448.2 169.8Q450.4 170.6 452.1 172.3Q453.8 173.9 454.7 176.4Q455.7 178.9 455.7 182.3L455.7 182.3L455.7 184.3L433.6 184.3L433.6 179.8L448.8 179.8Q448.8 178.2 448.1 177.0Q447.5 175.8 446.3 175.1Q445.1 174.4 443.5 174.4L443.5 174.4Q441.8 174.4 440.6 175.2Q439.3 175.9 438.6 177.2Q437.9 178.5 437.8 180.0L437.8 180.0L437.8 184.3Q437.8 186.2 438.6 187.6Q439.3 189.1 440.6 189.8Q441.9 190.6 443.8 190.6L443.8 190.6Q445.0 190.6 446.0 190.3Q447.0 189.9 447.7 189.2Q448.4 188.5 448.8 187.6L448.8 187.6L455.5 188Q455 190.4 453.4 192.2Q451.8 194.0 449.4 195.0Q446.9 196.0 443.6 196.0ZM467.7 195.5L460.5 195.5L460.5 160.6L467.8 160.6L467.8 173.7L468.0 173.7Q468.5 172.7 469.4 171.6Q470.3 170.5 471.8 169.7Q473.3 169.0 475.5 169.0L475.5 169.0Q478.3 169.0 480.8 170.5Q483.2 172.0 484.6 175.0Q486.1 177.9 486.1 182.4L486.1 182.4Q486.1 186.8 484.7 189.8Q483.3 192.8 480.8 194.4Q478.4 195.9 475.5 195.9L475.5 195.9Q473.3 195.9 471.9 195.2Q470.4 194.5 469.5 193.5Q468.5 192.4 468.0 191.3L468.0 191.3L467.7 191.3L467.7 195.5ZM467.6 182.4L467.6 182.4Q467.6 184.7 468.3 186.5Q468.9 188.2 470.2 189.2Q471.4 190.1 473.2 190.1L473.2 190.1Q474.9 190.1 476.2 189.2Q477.4 188.2 478.0 186.4Q478.7 184.7 478.7 182.4L478.7 182.4Q478.7 180.1 478.0 178.4Q477.4 176.7 476.2 175.7Q474.9 174.8 473.2 174.8L473.2 174.8Q471.4 174.8 470.2 175.7Q468.9 176.6 468.3 178.4Q467.6 180.1 467.6 182.4ZM512.7 176.8L512.7 176.8L506.0 177.2Q505.9 176.3 505.3 175.7Q504.7 175.0 503.8 174.5Q502.9 174.1 501.7 174.1L501.7 174.1Q500.0 174.1 498.8 174.8Q497.6 175.5 497.6 176.7L497.6 176.7Q497.6 177.7 498.4 178.3Q499.1 178.9 501.0 179.3L501.0 179.3L505.7 180.3Q509.5 181.1 511.4 182.8Q513.3 184.6 513.3 187.4L513.3 187.4Q513.3 190.0 511.8 191.9Q510.3 193.8 507.6 194.9Q505.0 196.0 501.6 196.0L501.6 196.0Q496.4 196.0 493.3 193.8Q490.3 191.7 489.7 187.9L489.7 187.9L496.9 187.5Q497.2 189.1 498.4 190.0Q499.7 190.8 501.6 190.8L501.6 190.8Q503.5 190.8 504.7 190.0Q505.9 189.3 505.9 188.1L505.9 188.1Q505.9 187.1 505.1 186.5Q504.2 185.9 502.5 185.5L502.5 185.5L498.0 184.6Q494.2 183.8 492.3 181.9Q490.4 180.1 490.4 177.1L490.4 177.1Q490.4 174.6 491.8 172.8Q493.2 171.0 495.7 170.0Q498.2 169.0 501.5 169.0L501.5 169.0Q506.5 169.0 509.3 171.1Q512.2 173.2 512.7 176.8ZM525.1 195.5L517.9 195.5L517.9 169.3L525.1 169.3L525.1 195.5ZM521.5 165.9L521.5 165.9Q519.9 165.9 518.7 164.9Q517.6 163.8 517.6 162.3L517.6 162.3Q517.6 160.8 518.7 159.7Q519.9 158.6 521.5 158.6L521.5 158.6Q523.1 158.6 524.3 159.7Q525.4 160.8 525.4 162.3L525.4 162.3Q525.4 163.8 524.3 164.9Q523.1 165.9 521.5 165.9ZM529.1 169.3L544.8 169.3L544.8 174.8L529.1 174.8L529.1 169.3ZM532.7 188.4L532.7 163.0L539.9 163.0L539.9 187.5Q539.9 188.5 540.2 189.0Q540.5 189.6 541.1 189.8Q541.6 190.0 542.4 190.0L542.4 190.0Q542.9 190.0 543.4 189.9Q543.9 189.8 544.2 189.8L544.2 189.8L545.3 195.2Q544.8 195.3 543.8 195.6Q542.8 195.8 541.4 195.9L541.4 195.9Q538.8 196.0 536.8 195.2Q534.8 194.4 533.7 192.7Q532.6 191.0 532.7 188.4L532.7 188.4ZM561.2 196.0L561.2 196.0Q557.2 196.0 554.3 194.4Q551.4 192.7 549.8 189.7Q548.2 186.7 548.2 182.5L548.2 182.5Q548.2 178.5 549.8 175.4Q551.4 172.4 554.2 170.7Q557.1 169.0 560.9 169.0L560.9 169.0Q563.5 169.0 565.8 169.8Q568.0 170.6 569.7 172.3Q571.4 173.9 572.3 176.4Q573.2 178.9 573.2 182.3L573.2 182.3L573.2 184.3L551.1 184.3L551.1 179.8L566.4 179.8Q566.4 178.2 565.7 177.0Q565.0 175.8 563.8 175.1Q562.6 174.4 561.1 174.4L561.1 174.4Q559.4 174.4 558.1 175.2Q556.9 175.9 556.1 177.2Q555.4 178.5 555.4 180.0L555.4 180.0L555.4 184.3Q555.4 186.2 556.1 187.6Q556.9 189.1 558.2 189.8Q559.5 190.6 561.3 190.6L561.3 190.6Q562.6 190.6 563.6 190.3Q564.6 189.9 565.3 189.2Q566 188.5 566.4 187.6L566.4 187.6L573.1 188Q572.6 190.4 571.0 192.2Q569.4 194.0 566.9 195.0Q564.5 196.0 561.2 196.0Z "/><mask id="satori_om-id-1"><rect x="256" y="222" width="288" height="29" fill="#fff"/></mask><path fill="white" d="M258.1 227.8L260.2 227.8L260.2 245.3L258.1 245.3L258.1 227.8ZM264.2 227.8L266.2 227.8L266.2 245.3L264.2 245.3L264.2 227.8ZM269.9 227.8L271.9 227.8L271.9 245.3L269.9 245.3L269.9 227.8ZM283.8 239.9L283.8 239.9L283.8 232.2L285.8 232.2L285.8 245.3L283.8 245.3L283.8 243.0L283.7 243.0Q283.2 244.0 282.2 244.7Q281.3 245.4 279.8 245.4L279.8 245.4Q278.6 245.4 277.6 244.9Q276.7 244.3 276.1 243.2Q275.6 242.1 275.6 240.5L275.6 240.5L275.6 232.2L277.6 232.2L277.6 240.3Q277.6 241.8 278.4 242.6Q279.2 243.5 280.4 243.5L280.4 243.5Q281.2 243.5 282.0 243.1Q282.8 242.7 283.3 241.9Q283.8 241.1 283.8 239.9ZM291.5 245.3L289.5 245.3L289.5 232.2L291.5 232.2L291.5 234.2L291.6 234.2Q292.0 233.2 292.9 232.6Q293.9 232.0 295.1 232.0L295.1 232.0Q296.4 232.0 297.3 232.6Q298.2 233.2 298.6 234.2L298.6 234.2L298.8 234.2Q299.3 233.2 300.3 232.6Q301.3 232.0 302.7 232.0L302.7 232.0Q304.5 232.0 305.6 233.1Q306.7 234.2 306.7 236.5L306.7 236.5L306.7 245.3L304.7 245.3L304.7 236.5Q304.7 235.0 303.9 234.4Q303.1 233.8 302.0 233.8L302.0 233.8Q300.6 233.8 299.9 234.6Q299.1 235.5 299.1 236.7L299.1 236.7L299.1 245.3L297.1 245.3L297.1 236.3Q297.1 235.2 296.4 234.5Q295.6 233.8 294.5 233.8L294.5 233.8Q293.7 233.8 293.0 234.2Q292.3 234.6 291.9 235.4Q291.5 236.1 291.5 237.1L291.5 237.1L291.5 245.3ZM312.4 245.3L310.4 245.3L310.4 232.2L312.4 232.2L312.4 245.3ZM311.4 230.0L311.4 230.0Q310.8 230.0 310.4 229.6Q310.0 229.2 310.0 228.6L310.0 228.6Q310.0 228.1 310.4 227.7Q310.8 227.3 311.4 227.3L311.4 227.3Q312.0 227.3 312.4 227.7Q312.8 228.1 312.8 228.6L312.8 228.6Q312.8 229.2 312.4 229.6Q312.0 230.0 311.4 230.0ZM318.1 237.4L318.1 237.4L318.1 245.3L316.1 245.3L316.1 232.2L318.0 232.2L318.0 234.2L318.2 234.2Q318.6 233.2 319.6 232.6Q320.5 232.0 322.0 232.0L322.0 232.0Q323.3 232.0 324.3 232.5Q325.3 233.1 325.9 234.2Q326.4 235.3 326.4 236.9L326.4 236.9L326.4 245.3L324.4 245.3L324.4 237.1Q324.4 235.5 323.6 234.7Q322.8 233.8 321.4 233.8L321.4 233.8Q320.5 233.8 319.7 234.2Q318.9 234.6 318.5 235.4Q318.1 236.2 318.1 237.4ZM334.0 245.6L334.0 245.6Q332.7 245.6 331.7 245.1Q330.7 244.6 330.1 243.7Q329.5 242.8 329.5 241.5L329.5 241.5Q329.5 240.4 329.9 239.7Q330.4 239.0 331.1 238.6Q331.9 238.2 332.8 238.0Q333.7 237.8 334.6 237.7L334.6 237.7Q335.8 237.5 336.5 237.4Q337.3 237.4 337.6 237.2Q338.0 237.0 338.0 236.5L338.0 236.5L338.0 236.4Q338.0 235.2 337.3 234.5Q336.6 233.8 335.2 233.8L335.2 233.8Q333.8 233.8 332.9 234.4Q332.1 235.0 331.8 235.7L331.8 235.7L329.9 235.1Q330.4 233.9 331.2 233.2Q332.1 232.5 333.1 232.3Q334.1 232.0 335.1 232.0L335.1 232.0Q335.8 232.0 336.6 232.1Q337.4 232.3 338.2 232.7Q338.9 233.2 339.5 234.1Q340.0 235.1 340.0 236.6L340.0 236.6L340.0 245.3L338.0 245.3L338.0 243.5L337.9 243.5Q337.6 243.9 337.2 244.4Q336.7 244.9 335.9 245.2Q335.1 245.6 334.0 245.6ZM334.3 243.8L334.3 243.8Q335.5 243.8 336.3 243.3Q337.1 242.8 337.5 242.1Q338.0 241.3 338.0 240.5L338.0 240.5L338.0 238.7Q337.8 238.8 337.4 238.9Q337.0 239.1 336.4 239.2Q335.8 239.3 335.3 239.3Q334.8 239.4 334.5 239.4L334.5 239.4Q333.7 239.5 333.0 239.7Q332.3 240.0 331.9 240.4Q331.5 240.9 331.5 241.6L331.5 241.6Q331.5 242.7 332.3 243.2Q333.1 243.8 334.3 243.8ZM342.6 232.2L349.3 232.2L349.3 233.9L342.6 233.9L342.6 232.2ZM344.5 242.0L344.5 229.0L346.5 229.0L346.5 241.5Q346.5 242.4 346.8 242.8Q347.0 243.2 347.4 243.3Q347.8 243.5 348.3 243.5L348.3 243.5Q348.6 243.5 348.8 243.4Q349.0 243.4 349.2 243.4L349.2 243.4L349.6 245.2Q349.4 245.3 349.0 245.3Q348.6 245.4 348.1 245.4L348.1 245.4Q347.2 245.4 346.4 245.1Q345.6 244.7 345.1 243.9Q344.5 243.2 344.5 242.0L344.5 242.0ZM354.4 245.3L352.4 245.3L352.4 232.2L354.4 232.2L354.4 245.3ZM353.4 230.0L353.4 230.0Q352.8 230.0 352.4 229.6Q352.0 229.2 352.0 228.6L352.0 228.6Q352.0 228.1 352.4 227.7Q352.8 227.3 353.4 227.3L353.4 227.3Q354.0 227.3 354.4 227.7Q354.8 228.1 354.8 228.6L354.8 228.6Q354.8 229.2 354.4 229.6Q354.0 230.0 353.4 230.0ZM360.1 237.4L360.1 237.4L360.1 245.3L358.1 245.3L358.1 232.2L360.0 232.2L360.0 234.2L360.2 234.2Q360.6 233.2 361.6 232.6Q362.5 232.0 364 232.0L364 232.0Q365.3 232.0 366.3 232.5Q367.3 233.1 367.9 234.2Q368.4 235.3 368.4 236.9L368.4 236.9L368.4 245.3L366.4 245.3L366.4 237.1Q366.4 235.5 365.6 234.7Q364.8 233.8 363.4 233.8L363.4 233.8Q362.5 233.8 361.7 234.2Q360.9 234.6 360.5 235.4Q360.1 236.2 360.1 237.4ZM377.4 250.4L377.4 250.4Q375.9 250.4 374.9 250.1Q373.8 249.7 373.1 249.1Q372.5 248.5 372.0 247.8L372.0 247.8L373.6 246.7Q373.9 247.0 374.3 247.5Q374.8 248.0 375.5 248.3Q376.2 248.7 377.4 248.7L377.4 248.7Q379.0 248.7 380.0 247.9Q381.0 247.1 381.0 245.5L381.0 245.5L381.0 242.8L380.9 242.8Q380.7 243.2 380.2 243.7Q379.8 244.2 379.1 244.6Q378.3 245.0 377.1 245.0L377.1 245.0Q375.5 245.0 374.2 244.3Q373.0 243.5 372.2 242.1Q371.5 240.7 371.5 238.6L371.5 238.6Q371.5 236.6 372.2 235.1Q372.9 233.6 374.2 232.8Q375.4 232.0 377.1 232.0L377.1 232.0Q378.4 232.0 379.1 232.4Q379.9 232.8 380.3 233.4Q380.7 233.9 380.9 234.2L380.9 234.2L381.1 234.2L381.1 232.2L383.1 232.2L383.1 245.6Q383.1 247.3 382.3 248.4Q381.5 249.4 380.2 249.9Q379.0 250.4 377.4 250.4ZM377.3 243.2L377.3 243.2Q378.5 243.2 379.4 242.7Q380.2 242.1 380.6 241.1Q381.1 240.1 381.1 238.6L381.1 238.6Q381.1 237.2 380.7 236.1Q380.2 235.0 379.4 234.4Q378.6 233.8 377.3 233.8L377.3 233.8Q376.1 233.8 375.2 234.4Q374.4 235.1 373.9 236.2Q373.5 237.3 373.5 238.6L373.5 238.6Q373.5 240.0 373.9 241.0Q374.4 242.1 375.2 242.6Q376.1 243.2 377.3 243.2Z M395.5 237.4L395.5 237.4L395.5 245.3L393.5 245.3L393.5 227.8L395.5 227.8L395.5 234.2L395.7 234.2Q396.1 233.2 397.1 232.6Q398.0 232.0 399.5 232.0L399.5 232.0Q400.9 232.0 401.9 232.5Q402.9 233.1 403.4 234.1Q404.0 235.2 404.0 236.9L404.0 236.9L404.0 245.3L402.0 245.3L402.0 237.1Q402.0 235.5 401.2 234.7Q400.4 233.8 398.9 233.8L398.9 233.8Q398.0 233.8 397.2 234.2Q396.4 234.6 395.9 235.4Q395.5 236.2 395.5 237.4ZM409.7 245.3L407.7 245.3L407.7 232.2L409.7 232.2L409.7 245.3ZM408.7 230.0L408.7 230.0Q408.1 230.0 407.7 229.6Q407.3 229.2 407.3 228.6L407.3 228.6Q407.3 228.1 407.7 227.7Q408.1 227.3 408.7 227.3L408.7 227.3Q409.3 227.3 409.7 227.7Q410.1 228.1 410.1 228.6L410.1 228.6Q410.1 229.2 409.7 229.6Q409.3 230.0 408.7 230.0ZM418.3 245.5L418.3 245.5Q416.7 245.5 415.4 244.7Q414.2 243.9 413.5 242.3Q412.8 240.8 412.8 238.7L412.8 238.7Q412.8 236.7 413.5 235.2Q414.2 233.6 415.4 232.8Q416.7 232.0 418.3 232.0L418.3 232.0Q419.6 232.0 420.4 232.4Q421.1 232.8 421.5 233.4Q421.9 233.9 422.1 234.2L422.1 234.2L422.3 234.2L422.3 227.8L424.3 227.8L424.3 245.3L422.4 245.3L422.4 243.2L422.1 243.2Q421.9 243.6 421.5 244.1Q421.1 244.7 420.3 245.1Q419.6 245.5 418.3 245.5ZM418.6 243.7L418.6 243.7Q419.8 243.7 420.6 243.1Q421.5 242.4 421.9 241.3Q422.3 240.2 422.3 238.7L422.3 238.7Q422.3 237.2 421.9 236.1Q421.5 235.0 420.6 234.4Q419.8 233.8 418.6 233.8L418.6 233.8Q417.3 233.8 416.5 234.4Q415.6 235.1 415.2 236.2Q414.8 237.3 414.8 238.7L414.8 238.7Q414.8 240.1 415.2 241.2Q415.6 242.4 416.5 243.0Q417.3 243.7 418.6 243.7ZM433.2 245.5L433.2 245.5Q431.6 245.5 430.3 244.7Q429.1 243.9 428.4 242.3Q427.6 240.8 427.6 238.7L427.6 238.7Q427.6 236.7 428.4 235.2Q429.1 233.6 430.3 232.8Q431.6 232.0 433.2 232.0L433.2 232.0Q434.5 232.0 435.3 232.4Q436.0 232.8 436.4 233.4Q436.8 233.9 437.0 234.2L437.0 234.2L437.2 234.2L437.2 227.8L439.2 227.8L439.2 245.3L437.3 245.3L437.3 243.2L437.0 243.2Q436.8 243.6 436.4 244.1Q436.0 244.7 435.2 245.1Q434.5 245.5 433.2 245.5ZM433.5 243.7L433.5 243.7Q434.7 243.7 435.5 243.1Q436.4 242.4 436.8 241.3Q437.2 240.2 437.2 238.7L437.2 238.7Q437.2 237.2 436.8 236.1Q436.4 235.0 435.5 234.4Q434.7 233.8 433.5 233.8L433.5 233.8Q432.2 233.8 431.4 234.4Q430.5 235.1 430.1 236.2Q429.7 237.3 429.7 238.7L429.7 238.7Q429.7 240.1 430.1 241.2Q430.5 242.4 431.4 243.0Q432.2 243.7 433.5 243.7ZM448.6 245.5L448.6 245.5Q446.8 245.5 445.4 244.7Q444.0 243.8 443.3 242.3Q442.5 240.8 442.5 238.8L442.5 238.8Q442.5 236.8 443.3 235.3Q444.0 233.7 445.3 232.9Q446.7 232.0 448.4 232.0L448.4 232.0Q449.5 232.0 450.5 232.3Q451.5 232.7 452.3 233.4Q453.1 234.2 453.6 235.4Q454.1 236.7 454.1 238.5L454.1 238.5L454.1 239.4L444.0 239.4L444.0 237.6L452.0 237.6Q452.0 236.5 451.6 235.7Q451.1 234.8 450.3 234.3Q449.5 233.8 448.4 233.8L448.4 233.8Q447.2 233.8 446.4 234.4Q445.5 235.0 445.0 235.9Q444.6 236.9 444.6 238.0L444.6 238.0L444.6 239.1Q444.6 240.6 445.1 241.6Q445.6 242.7 446.5 243.2Q447.4 243.7 448.6 243.7L448.6 243.7Q449.4 243.7 450.1 243.5Q450.7 243.3 451.2 242.8Q451.7 242.4 451.9 241.7L451.9 241.7L453.9 242.2Q453.6 243.2 452.8 244.0Q452.1 244.7 451.0 245.1Q450.0 245.5 448.6 245.5ZM459.1 237.4L459.1 237.4L459.1 245.3L457.1 245.3L457.1 232.2L459.1 232.2L459.1 234.2L459.2 234.2Q459.7 233.2 460.6 232.6Q461.6 232.0 463.1 232.0L463.1 232.0Q464.4 232.0 465.4 232.5Q466.4 233.1 466.9 234.2Q467.5 235.3 467.5 236.9L467.5 236.9L467.5 245.3L465.5 245.3L465.5 237.1Q465.5 235.5 464.7 234.7Q463.9 233.8 462.5 233.8L462.5 233.8Q461.5 233.8 460.8 234.2Q460.0 234.6 459.6 235.4Q459.1 236.2 459.1 237.4Z M476.8 232.2L483.6 232.2L483.6 233.9L476.8 233.9L476.8 232.2ZM478.8 242.0L478.8 229.0L480.8 229.0L480.8 241.5Q480.8 242.4 481.1 242.8Q481.3 243.2 481.7 243.3Q482.1 243.5 482.6 243.5L482.6 243.5Q482.9 243.5 483.1 243.4Q483.3 243.4 483.5 243.4L483.5 243.4L483.9 245.2Q483.7 245.3 483.3 245.3Q482.9 245.4 482.4 245.4L482.4 245.4Q481.5 245.4 480.7 245.1Q479.9 244.7 479.4 243.9Q478.8 243.2 478.8 242.0L478.8 242.0ZM488.7 245.3L486.7 245.3L486.7 232.2L488.6 232.2L488.6 234.1L488.7 234.1Q489.1 233.2 490.0 232.6Q491.0 232.0 492.1 232.0L492.1 232.0Q492.4 232.0 492.7 232.0Q493.0 232.0 493.2 232.0L493.2 232.0L493.2 234.0Q493.1 234.0 492.7 234.0Q492.4 233.9 492.0 233.9L492.0 233.9Q491.0 233.9 490.3 234.3Q489.5 234.7 489.1 235.4Q488.7 236.1 488.7 237.0L488.7 237.0L488.7 245.3ZM503.8 239.9L503.8 239.9L503.8 232.2L505.9 232.2L505.9 245.3L503.8 245.3L503.8 243.0L503.7 243.0Q503.2 244.0 502.3 244.7Q501.3 245.4 499.8 245.4L499.8 245.4Q498.6 245.4 497.6 244.9Q496.7 244.3 496.1 243.2Q495.6 242.1 495.6 240.5L495.6 240.5L495.6 232.2L497.6 232.2L497.6 240.3Q497.6 241.8 498.4 242.6Q499.2 243.5 500.5 243.5L500.5 243.5Q501.2 243.5 502.0 243.1Q502.8 242.7 503.3 241.9Q503.8 241.1 503.8 239.9ZM508.4 232.2L515.2 232.2L515.2 233.9L508.4 233.9L508.4 232.2ZM510.4 242.0L510.4 229.0L512.4 229.0L512.4 241.5Q512.4 242.4 512.7 242.8Q512.9 243.2 513.3 243.3Q513.7 243.5 514.2 243.5L514.2 243.5Q514.5 243.5 514.7 243.4Q514.9 243.4 515.1 243.4L515.1 243.4L515.5 245.2Q515.3 245.3 514.9 245.3Q514.5 245.4 514.0 245.4L514.0 245.4Q513.1 245.4 512.3 245.1Q511.5 244.7 511.0 243.9Q510.4 243.2 510.4 242.0L510.4 242.0ZM520.5 237.4L520.5 237.4L520.5 245.3L518.5 245.3L518.5 227.8L520.5 227.8L520.5 234.2L520.7 234.2Q521.2 233.2 522.1 232.6Q523.0 232.0 524.6 232.0L524.6 232.0Q525.9 232.0 526.9 232.5Q527.9 233.1 528.5 234.1Q529.0 235.2 529.0 236.9L529.0 236.9L529.0 245.3L527.0 245.3L527.0 237.1Q527.0 235.5 526.2 234.7Q525.4 233.8 524.0 233.8L524.0 233.8Q523.0 233.8 522.2 234.2Q521.4 234.6 521.0 235.4Q520.5 236.2 520.5 237.4ZM542.0 235.1L542.0 235.1L540.2 235.6Q540.0 235.2 539.7 234.7Q539.4 234.3 538.8 234.0Q538.2 233.7 537.4 233.7L537.4 233.7Q536.2 233.7 535.4 234.3Q534.6 234.8 534.6 235.7L534.6 235.7Q534.6 236.4 535.1 236.9Q535.6 237.3 536.8 237.6L536.8 237.6L538.7 238.1Q540.5 238.5 541.4 239.4Q542.2 240.2 542.2 241.6L542.2 241.6Q542.2 242.7 541.6 243.6Q540.9 244.5 539.8 245.0Q538.6 245.5 537.1 245.5L537.1 245.5Q535.1 245.5 533.8 244.7Q532.5 243.8 532.1 242.1L532.1 242.1L534.0 241.6Q534.3 242.7 535.1 243.2Q535.8 243.8 537.1 243.8L537.1 243.8Q538.5 243.8 539.3 243.1Q540.1 242.5 540.1 241.7L540.1 241.7Q540.1 241.0 539.7 240.6Q539.2 240.1 538.2 239.9L538.2 239.9L536.0 239.4Q534.2 238.9 533.4 238.0Q532.5 237.1 532.5 235.8L532.5 235.8Q532.5 234.7 533.2 233.8Q533.8 233.0 534.9 232.5Q536.0 232.0 537.4 232.0L537.4 232.0Q539.3 232.0 540.4 232.8Q541.5 233.7 542.0 235.1Z "/></svg>