<svg width="800" height="400" viewBox="0 0 800 400" xmlns="http://www.w3.org/2000/svg"><defs><pattern id="satori_pattern_id_0" x="0" y="0" width="1" height="1" patternUnits="objectBoundingBox"><linearGradient id="satori_biid_0" x1="0" y1="0" x2="1" y2="0" spreadMethod="pad"><stop offset="0%" stop-color=""/><stop offset="100%" stop-color="#423437"/></linearGradient><rect x="0" y="0" width="800" height="400" fill="url(#satori_biid_0)"/></pattern></defs><mask id="satori_om-id"><rect x="0" y="0" width="800" height="400" fill="#fff"/></mask><rect x="0" y="0" width="800" height="400" fill="url(#satori_pattern_id_0)"/><mask id="satori_om-id-0"><rect x="119" y="149" width="563" height="58" fill="#fff"/></mask><path fill="white" d="M137.1 195.5L129.9 195.5L119.9 160.6L128.0 160.6L133.7 184.8L134.0 184.8L140.4 160.6L147.3 160.6L153.7 184.9L154.0 184.9L159.8 160.6L167.8 160.6L157.8 195.5L150.6 195.5L144.0 172.7L143.7 172.7L137.1 195.5ZM180.7 196.0L180.7 196.0Q176.7 196.0 173.8 194.4Q170.9 192.7 169.3 189.7Q167.7 186.7 167.7 182.5L167.7 182.5Q167.7 178.5 169.3 175.4Q170.9 172.4 173.7 170.7Q176.6 169.0 180.4 169.0L180.4 169.0Q183.0 169.0 185.3 169.8Q187.5 170.6 189.2 172.3Q190.9 173.9 191.8 176.4Q192.7 178.9 192.7 182.3L192.7 182.3L192.7 184.3L170.6 184.3L170.6 179.8L185.9 179.8Q185.9 178.2 185.2 177.0Q184.5 175.8 183.3 175.1Q182.1 174.4 180.6 174.4L180.6 174.4Q178.9 174.4 177.6 175.2Q176.4 175.9 175.6 177.2Q174.9 178.5 174.9 180.0L174.9 180.0L174.9 184.3Q174.9 186.2 175.6 187.6Q176.4 189.1 177.7 189.8Q179.0 190.6 180.8 190.6L180.8 190.6Q182.1 190.6 183.1 190.3Q184.1 189.9 184.8 189.2Q185.5 188.5 185.9 187.6L185.9 187.6L192.6 188Q192.1 190.4 190.5 192.2Q188.9 194.0 186.4 195.0Q184.0 196.0 180.7 196.0ZM204.8 195.5L197.6 195.5L197.6 160.6L204.9 160.6L204.9 173.7L205.1 173.7Q205.6 172.7 206.5 171.6Q207.4 170.5 208.9 169.7Q210.3 169.0 212.5 169.0L212.5 169.0Q215.4 169.0 217.8 170.5Q220.2 172.0 221.7 175.0Q223.1 177.9 223.1 182.4L223.1 182.4Q223.1 186.8 221.7 189.8Q220.3 192.8 217.9 194.4Q215.5 195.9 212.5 195.9L212.5 195.9Q210.4 195.9 208.9 195.2Q207.5 194.5 206.5 193.5Q205.6 192.4 205.1 191.3L205.1 191.3L204.8 191.3L204.8 195.5ZM204.7 182.4L204.7 182.4Q204.7 184.7 205.4 186.5Q206.0 188.2 207.2 189.2Q208.5 190.1 210.2 190.1L210.2 190.1Q212.0 190.1 213.2 189.2Q214.5 188.2 215.1 186.4Q215.7 184.7 215.7 182.4L215.7 182.4Q215.7 180.1 215.1 178.4Q214.5 176.7 213.2 175.7Q212.0 174.8 210.2 174.8L210.2 174.8Q208.5 174.8 207.2 175.7Q206.0 176.6 205.4 178.4Q204.7 180.1 204.7 182.4ZM249.8 176.8L249.8 176.8L243.1 177.2Q242.9 176.3 242.4 175.7Q241.8 175.0 240.9 174.5Q240.0 174.1 238.7 174.1L238.7 174.1Q237.0 174.1 235.9 174.8Q234.7 175.5 234.7 176.7L234.7 176.7Q234.7 177.7 235.5 178.3Q236.2 178.9 238.0 179.3L238.0 179.3L242.8 180.3Q246.6 181.1 248.5 182.8Q250.4 184.6 250.4 187.4L250.4 187.4Q250.4 190.0 248.8 191.9Q247.3 193.8 244.7 194.9Q242.1 196.0 238.7 196.0L238.7 196.0Q233.5 196.0 230.4 193.8Q227.3 191.7 226.8 187.9L226.8 187.9L234.0 187.5Q234.3 189.1 235.5 190.0Q236.8 190.8 238.7 190.8L238.7 190.8Q240.6 190.8 241.8 190.0Q243.0 189.3 243.0 188.1L243.0 188.1Q243.0 187.1 242.1 186.5Q241.3 185.9 239.6 185.5L239.6 185.5L235.1 184.6Q231.2 183.8 229.4 181.9Q227.5 180.1 227.5 177.1L227.5 177.1Q227.5 174.6 228.9 172.8Q230.3 171.0 232.8 170.0Q235.3 169.0 238.6 169.0L238.6 169.0Q243.6 169.0 246.4 171.1Q249.3 173.2 249.8 176.8ZM262.2 195.5L254.9 195.5L254.9 169.3L262.2 169.3L262.2 195.5ZM258.6 165.9L258.6 165.9Q257.0 165.9 255.8 164.9Q254.7 163.8 254.7 162.3L254.7 162.3Q254.7 160.8 255.8 159.7Q257.0 158.6 258.6 158.6L258.6 158.6Q260.2 158.6 261.4 159.7Q262.5 160.8 262.5 162.3L262.5 162.3Q262.5 163.8 261.4 164.9Q260.2 165.9 258.6 165.9ZM266.2 169.3L281.9 169.3L281.9 174.8L266.2 174.8L266.2 169.3ZM269.7 188.4L269.7 163.0L277.0 163.0L277.0 187.5Q277.0 188.5 277.3 189.0Q277.6 189.6 278.2 189.8Q278.7 190.0 279.4 190.0L279.4 190.0Q280.0 190.0 280.5 189.9Q281.0 189.8 281.3 189.8L281.3 189.8L282.4 195.2Q281.9 195.3 280.9 195.6Q279.9 195.8 278.5 195.9L278.5 195.9Q275.8 196.0 273.9 195.2Q271.9 194.4 270.8 192.7Q269.7 191.0 269.7 188.4L269.7 188.4ZM298.3 196.0L298.3 196.0Q294.3 196.0 291.4 194.4Q288.4 192.7 286.9 189.7Q285.3 186.7 285.3 182.5L285.3 182.5Q285.3 178.5 286.9 175.4Q288.4 172.4 291.3 170.7Q294.2 169.0 298.0 169.0L298.0 169.0Q300.6 169.0 302.8 169.8Q305.1 170.6 306.8 172.3Q308.4 173.9 309.4 176.4Q310.3 178.9 310.3 182.3L310.3 182.3L310.3 184.3L288.2 184.3L288.2 179.8L303.5 179.8Q303.5 178.2 302.8 177.0Q302.1 175.8 300.9 175.1Q299.7 174.4 298.1 174.4L298.1 174.4Q296.5 174.4 295.2 175.2Q293.9 175.9 293.2 177.2Q292.5 178.5 292.5 180.0L292.5 180.0L292.5 184.3Q292.5 186.2 293.2 187.6Q293.9 189.1 295.3 189.8Q296.6 190.6 298.4 190.6L298.4 190.6Q299.6 190.6 300.6 190.3Q301.6 189.9 302.4 189.2Q303.1 188.5 303.4 187.6L303.4 187.6L310.2 188Q309.7 190.4 308.1 192.2Q306.5 194.0 304.0 195.0Q301.5 196.0 298.3 196.0Z M360.2 172.8L360.2 172.8L352.8 172.8Q352.6 171.4 351.9 170.2Q351.3 169.1 350.3 168.3Q349.3 167.5 348.0 167.1Q346.7 166.6 345.2 166.6L345.2 166.6Q342.5 166.6 340.5 168.0Q338.5 169.3 337.4 171.9Q336.3 174.4 336.3 178.0L336.3 178.0Q336.3 181.8 337.4 184.3Q338.5 186.9 340.5 188.2Q342.6 189.4 345.2 189.4L345.2 189.4Q346.7 189.4 347.9 189.1Q349.2 188.7 350.2 187.9Q351.2 187.1 351.8 186.1Q352.5 185.0 352.8 183.6L352.8 183.6L360.2 183.6Q359.9 186.0 358.8 188.2Q357.6 190.5 355.7 192.2Q353.8 193.9 351.1 195.0Q348.4 196.0 345.1 196.0L345.1 196.0Q340.4 196.0 336.7 193.9Q333.1 191.8 330.9 187.7Q328.8 183.7 328.8 178.0L328.8 178.0Q328.8 172.3 331.0 168.3Q333.1 164.3 336.8 162.2Q340.5 160.1 345.1 160.1L345.1 160.1Q348.1 160.1 350.7 161.0Q353.3 161.8 355.3 163.4Q357.3 165.1 358.6 167.4Q359.9 169.8 360.2 172.8ZM377.2 196.0L377.2 196.0Q373.3 196.0 370.4 194.3Q367.5 192.6 365.9 189.6Q364.3 186.5 364.3 182.5L364.3 182.5Q364.3 178.5 365.9 175.4Q367.5 172.4 370.4 170.7Q373.3 169.0 377.2 169.0L377.2 169.0Q381.2 169.0 384.1 170.7Q387.0 172.4 388.5 175.4Q390.1 178.5 390.1 182.5L390.1 182.5Q390.1 186.5 388.5 189.6Q387.0 192.6 384.1 194.3Q381.2 196.0 377.2 196.0ZM377.3 190.4L377.3 190.4Q379.1 190.4 380.3 189.4Q381.5 188.3 382.1 186.5Q382.7 184.7 382.7 182.5L382.7 182.5Q382.7 180.2 382.1 178.4Q381.5 176.6 380.3 175.6Q379.1 174.5 377.3 174.5L377.3 174.5Q375.4 174.5 374.2 175.6Q373.0 176.6 372.3 178.4Q371.7 180.2 371.7 182.5L371.7 182.5Q371.7 184.7 372.3 186.5Q373.0 188.3 374.2 189.4Q375.4 190.4 377.3 190.4ZM404.5 195.9L404.5 195.9Q401.5 195.9 399.1 194.4Q396.7 192.8 395.3 189.8Q393.9 186.8 393.9 182.4L393.9 182.4Q393.9 177.9 395.3 175.0Q396.8 172.0 399.2 170.5Q401.6 169.0 404.5 169.0L404.5 169.0Q406.7 169.0 408.2 169.7Q409.6 170.5 410.5 171.6Q411.4 172.7 411.9 173.7L411.9 173.7L412.1 173.7L412.1 160.6L419.4 160.6L419.4 195.5L412.2 195.5L412.2 191.3L411.9 191.3Q411.4 192.4 410.5 193.5Q409.6 194.5 408.1 195.2Q406.6 195.9 404.5 195.9ZM406.8 190.1L406.8 190.1Q408.6 190.1 409.8 189.2Q411.0 188.2 411.6 186.5Q412.3 184.7 412.3 182.4L412.3 182.4Q412.3 180.1 411.7 178.4Q411.0 176.6 409.8 175.7Q408.6 174.8 406.8 174.8L406.8 174.8Q405.0 174.8 403.8 175.7Q402.6 176.7 401.9 178.4Q401.3 180.1 401.3 182.4L401.3 182.4Q401.3 184.7 401.9 186.4Q402.6 188.2 403.8 189.2Q405.0 190.1 406.8 190.1ZM437.3 196.0L437.3 196.0Q433.2 196.0 430.3 194.4Q427.4 192.7 425.9 189.7Q424.3 186.7 424.3 182.5L424.3 182.5Q424.3 178.5 425.9 175.4Q427.4 172.4 430.3 170.7Q433.1 169.0 437.0 169.0L437.0 169.0Q439.6 169.0 441.8 169.8Q444.1 170.6 445.7 172.3Q447.4 173.9 448.4 176.4Q449.3 178.9 449.3 182.3L449.3 182.3L449.3 184.3L427.2 184.3L427.2 179.8L442.5 179.8Q442.5 178.2 441.8 177.0Q441.1 175.8 439.9 175.1Q438.7 174.4 437.1 174.4L437.1 174.4Q435.4 174.4 434.2 175.2Q432.9 175.9 432.2 177.2Q431.5 178.5 431.5 180.0L431.5 180.0L431.5 184.3Q431.5 186.2 432.2 187.6Q432.9 189.1 434.2 189.8Q435.6 190.6 437.4 190.6L437.4 190.6Q438.6 190.6 439.6 190.3Q440.6 189.9 441.3 189.2Q442.0 188.5 442.4 187.6L442.4 187.6L449.1 188Q448.6 190.4 447.0 192.2Q445.5 194.0 443.0 195.0Q440.5 196.0 437.3 196.0Z M488.9 195.5L465.3 195.5L465.3 160.6L488.8 160.6L488.8 166.7L472.7 166.7L472.7 175.0L487.6 175.0L487.6 181.1L472.7 181.1L472.7 189.4L488.9 189.4L488.9 195.5ZM493.1 169.3L500.6 169.3L505.4 178.5L510.4 169.3L517.8 169.3L510.2 182.4L518.0 195.5L510.6 195.5L505.4 186.4L500.4 195.5L492.9 195.5L500.6 182.4L493.1 169.3ZM520.3 169.3L536.0 169.3L536.0 174.8L520.3 174.8L520.3 169.3ZM523.8 188.4L523.8 163.0L531.1 163.0L531.1 187.5Q531.1 188.5 531.4 189.0Q531.7 189.6 532.3 189.8Q532.8 190.0 533.6 190.0L533.6 190.0Q534.1 190.0 534.6 189.9Q535.1 189.8 535.4 189.8L535.4 189.8L536.5 195.2Q536.0 195.3 535.0 195.6Q534.0 195.8 532.6 195.9L532.6 195.9Q529.9 196.0 528.0 195.2Q526.0 194.4 524.9 192.7Q523.8 191.0 523.8 188.4L523.8 188.4ZM548.0 195.5L540.8 195.5L540.8 169.3L547.8 169.3L547.8 173.9L548.1 173.9Q548.8 171.4 550.5 170.2Q552.2 168.9 554.4 168.9L554.4 168.9Q554.9 168.9 555.5 169.0Q556.2 169.1 556.6 169.2L556.6 169.2L556.6 175.6Q556.1 175.5 555.2 175.4Q554.3 175.3 553.6 175.3L553.6 175.3Q552.0 175.3 550.7 175.9Q549.5 176.6 548.7 177.9Q548.0 179.1 548.0 180.7L548.0 180.7L548.0 195.5ZM567.1 196.0L567.1 196.0Q564.6 196.0 562.6 195.1Q560.7 194.2 559.5 192.5Q558.4 190.8 558.4 188.2L558.4 188.2Q558.4 186.0 559.2 184.5Q560.0 183.0 561.4 182.1Q562.8 181.2 564.5 180.8Q566.3 180.3 568.3 180.1L568.3 180.1Q570.5 179.9 571.9 179.7Q573.3 179.5 574.0 179.0Q574.6 178.6 574.6 177.8L574.6 177.8L574.6 177.7Q574.6 176.1 573.6 175.2Q572.6 174.3 570.7 174.3L570.7 174.3Q568.7 174.3 567.6 175.1Q566.4 176 566.1 177.3L566.1 177.3L559.3 176.8Q559.8 174.4 561.3 172.6Q562.8 170.9 565.2 169.9Q567.6 169.0 570.7 169.0L570.7 169.0Q572.9 169.0 574.9 169.5Q576.9 170 578.5 171.1Q580.0 172.1 580.9 173.8Q581.9 175.5 581.9 177.8L581.9 177.8L581.9 195.5L575.0 195.5L575.0 191.9L574.8 191.9Q574.1 193.1 573.1 194.0Q572.0 195.0 570.5 195.5Q569.1 196.0 567.1 196.0ZM569.2 191.0L569.2 191.0Q570.8 191.0 572.0 190.3Q573.2 189.7 573.9 188.6Q574.6 187.5 574.6 186.1L574.6 186.1L574.6 183.4Q574.3 183.6 573.7 183.8Q573.1 183.9 572.4 184.1Q571.7 184.2 570.9 184.3Q570.2 184.5 569.6 184.5L569.6 184.5Q568.3 184.7 567.4 185.1Q566.4 185.5 565.9 186.2Q565.4 186.9 565.4 187.9L565.4 187.9Q565.4 189.4 566.4 190.2Q567.5 191.0 569.2 191.0ZM599.3 196.0L599.3 196.0Q595.3 196.0 592.4 194.3Q589.5 192.6 588.0 189.5Q586.4 186.5 586.4 182.5L586.4 182.5Q586.4 178.5 588.0 175.4Q589.6 172.4 592.4 170.7Q595.3 169.0 599.3 169.0L599.3 169.0Q602.7 169.0 605.3 170.2Q607.9 171.5 609.4 173.7Q610.9 176.0 611.0 179L611.0 179L604.2 179Q603.9 177.0 602.6 175.8Q601.4 174.6 599.4 174.6L599.4 174.6Q597.7 174.6 596.5 175.5Q595.2 176.5 594.5 178.2Q593.8 179.9 593.8 182.4L593.8 182.4Q593.8 184.9 594.5 186.7Q595.2 188.4 596.5 189.3Q597.7 190.3 599.4 190.3L599.4 190.3Q600.7 190.3 601.7 189.8Q602.6 189.2 603.3 188.3Q604.0 187.3 604.2 185.9L604.2 185.9L611.0 185.9Q610.8 188.9 609.4 191.2Q607.9 193.5 605.4 194.7Q602.8 196.0 599.3 196.0ZM613.8 169.3L629.6 169.3L629.6 174.8L613.8 174.8L613.8 169.3ZM617.4 188.4L617.4 163.0L624.7 163.0L624.7 187.5Q624.7 188.5 625.0 189.0Q625.3 189.6 625.9 189.8Q626.4 190.0 627.1 190.0L627.1 190.0Q627.7 190.0 628.2 189.9Q628.7 189.8 628.9 189.8L628.9 189.8L630.1 195.2Q629.5 195.3 628.6 195.6Q627.6 195.8 626.2 195.9L626.2 195.9Q623.5 196.0 621.6 195.2Q619.6 194.4 618.5 192.7Q617.4 191.0 617.4 188.4L617.4 188.4ZM645.9 196.0L645.9 196.0Q641.9 196.0 639.0 194.3Q636.1 192.6 634.6 189.6Q633.0 186.5 633.0 182.5L633.0 182.5Q633.0 178.5 634.6 175.4Q636.1 172.4 639.0 170.7Q641.9 169.0 645.9 169.0L645.9 169.0Q649.9 169.0 652.8 170.7Q655.6 172.4 657.2 175.4Q658.8 178.5 658.8 182.5L658.8 182.5Q658.8 186.5 657.2 189.6Q655.6 192.6 652.8 194.3Q649.9 196.0 645.9 196.0ZM645.9 190.4L645.9 190.4Q647.7 190.4 648.9 189.4Q650.2 188.3 650.8 186.5Q651.4 184.7 651.4 182.5L651.4 182.5Q651.4 180.2 650.8 178.4Q650.2 176.6 648.9 175.6Q647.7 174.5 645.9 174.5L645.9 174.5Q644.1 174.5 642.9 175.6Q641.6 176.6 641.0 178.4Q640.4 180.2 640.4 182.5L640.4 182.5Q640.4 184.7 641.0 186.5Q641.6 188.3 642.9 189.4Q644.1 190.4 645.9 190.4ZM670.8 195.5L663.5 195.5L663.5 169.3L670.6 169.3L670.6 173.9L670.8 173.9Q671.5 171.4 673.2 170.2Q674.9 168.9 677.1 168.9L677.1 168.9Q677.7 168.9 678.3 169.0Q678.9 169.1 679.4 169.2L679.4 169.2L679.4 175.6Q678.9 175.5 678.0 175.4Q677.1 175.3 676.3 175.3L676.3 175.3Q674.7 175.3 673.5 175.9Q672.2 176.6 671.5 177.9Q670.8 179.1 670.8 180.7L670.8 180.7L670.8 195.5Z "/><mask id="satori_om-id-1"><rect x="244" y="222" width="313" height="29" fill="#fff"/></mask><path fill="white" d="M256.8 245.3L246.1 245.3L246.1 227.8L256.6 227.8L256.6 229.7L248.2 229.7L248.2 235.6L256.1 235.6L256.1 237.4L248.2 237.4L248.2 243.4L256.8 243.4L256.8 245.3ZM259.4 232.2L261.7 232.2L264.8 237.5L268.0 232.2L270.3 232.2L266.1 238.7L270.3 245.3L268.0 245.3L264.8 240.2L261.7 245.3L259.4 245.3L263.5 238.7L259.4 232.2ZM272.1 232.2L278.8 232.2L278.8 233.9L272.1 233.9L272.1 232.2ZM274.0 242.0L274.0 229.0L276.0 229.0L276.0 241.5Q276.0 242.4 276.3 242.8Q276.5 243.2 276.9 243.3Q277.3 243.5 277.8 243.5L277.8 243.5Q278.1 243.5 278.3 243.4Q278.5 243.4 278.7 243.4L278.7 243.4L279.1 245.2Q278.9 245.3 278.5 245.3Q278.1 245.4 277.6 245.4L277.6 245.4Q276.7 245.4 275.9 245.1Q275.1 244.7 274.6 243.9Q274.0 243.2 274.0 242.0L274.0 242.0ZM283.9 245.3L281.9 245.3L281.9 232.2L283.8 232.2L283.8 234.1L284.0 234.1Q284.3 233.2 285.3 232.6Q286.2 232.0 287.4 232.0L287.4 232.0Q287.6 232.0 287.9 232.0Q288.3 232.0 288.4 232.0L288.4 232.0L288.4 234.0Q288.3 234.0 288.0 234.0Q287.6 233.9 287.2 233.9L287.2 233.9Q286.2 233.9 285.5 234.3Q284.7 234.7 284.3 235.4Q283.9 236.1 283.9 237.0L283.9 237.0L283.9 245.3ZM294.7 245.6L294.7 245.6Q293.4 245.6 292.4 245.1Q291.4 244.6 290.8 243.7Q290.2 242.8 290.2 241.5L290.2 241.5Q290.2 240.4 290.6 239.7Q291.1 239.0 291.8 238.6Q292.6 238.2 293.5 238.0Q294.4 237.8 295.3 237.7L295.3 237.7Q296.5 237.5 297.2 237.4Q298.0 237.4 298.3 237.2Q298.6 237.0 298.6 236.5L298.6 236.5L298.6 236.4Q298.6 235.2 298.0 234.5Q297.3 233.8 295.9 233.8L295.9 233.8Q294.4 233.8 293.6 234.4Q292.8 235.0 292.5 235.7L292.5 235.7L290.6 235.1Q291.1 233.9 291.9 233.2Q292.8 232.5 293.8 232.3Q294.8 232.0 295.8 232.0L295.8 232.0Q296.4 232.0 297.3 232.1Q298.1 232.3 298.9 232.7Q299.6 233.2 300.1 234.1Q300.7 235.1 300.7 236.6L300.7 236.6L300.7 245.3L298.6 245.3L298.6 243.5L298.5 243.5Q298.3 243.9 297.9 244.4Q297.4 244.9 296.6 245.2Q295.8 245.6 294.7 245.6ZM295.0 243.8L295.0 243.8Q296.2 243.8 297.0 243.3Q297.8 242.8 298.2 242.1Q298.6 241.3 298.6 240.5L298.6 240.5L298.6 238.7Q298.5 238.8 298.1 238.9Q297.7 239.1 297.1 239.2Q296.5 239.3 296.0 239.3Q295.5 239.4 295.2 239.4L295.2 239.4Q294.4 239.5 293.7 239.7Q293.0 240.0 292.6 240.4Q292.2 240.9 292.2 241.6L292.2 241.6Q292.2 242.7 293.0 243.2Q293.8 243.8 295.0 243.8ZM309.7 245.5L309.7 245.5Q307.8 245.5 306.5 244.7Q305.2 243.8 304.4 242.3Q303.7 240.7 303.7 238.8L303.7 238.8Q303.7 236.8 304.5 235.2Q305.2 233.7 306.5 232.9Q307.9 232.0 309.6 232.0L309.6 232.0Q311.0 232.0 312.1 232.5Q313.2 233.0 313.9 233.9Q314.6 234.9 314.8 236.1L314.8 236.1L312.8 236.1Q312.6 235.2 311.8 234.5Q311.0 233.8 309.7 233.8L309.7 233.8Q308.5 233.8 307.6 234.4Q306.7 235.0 306.2 236.1Q305.7 237.2 305.7 238.7L305.7 238.7Q305.7 240.2 306.2 241.3Q306.7 242.5 307.6 243.1Q308.5 243.7 309.7 243.7L309.7 243.7Q310.4 243.7 311.1 243.4Q311.7 243.2 312.2 242.7Q312.6 242.1 312.8 241.4L312.8 241.4L314.8 241.4Q314.6 242.6 314.0 243.5Q313.3 244.4 312.2 245.0Q311.1 245.5 309.7 245.5ZM316.6 232.2L323.4 232.2L323.4 233.9L316.6 233.9L316.6 232.2ZM318.6 242.0L318.6 229.0L320.6 229.0L320.6 241.5Q320.6 242.4 320.9 242.8Q321.1 243.2 321.5 243.3Q321.9 243.5 322.4 243.5L322.4 243.5Q322.7 243.5 322.9 243.4Q323.1 243.4 323.3 243.4L323.3 243.4L323.7 245.2Q323.5 245.3 323.1 245.3Q322.7 245.4 322.2 245.4L322.2 245.4Q321.3 245.4 320.5 245.1Q319.7 244.7 319.2 243.9Q318.6 243.2 318.6 242.0L318.6 242.0Z M338.5 245.5L338.5 245.5Q336.7 245.5 335.4 244.7Q334.0 243.8 333.3 242.3Q332.6 240.7 332.6 238.8L332.6 238.8Q332.6 236.8 333.3 235.2Q334.1 233.7 335.4 232.9Q336.7 232.0 338.5 232.0L338.5 232.0Q339.9 232.0 341.0 232.5Q342.1 233.0 342.8 233.9Q343.5 234.9 343.7 236.1L343.7 236.1L341.7 236.1Q341.4 235.2 340.7 234.5Q339.9 233.8 338.5 233.8L338.5 233.8Q337.4 233.8 336.5 234.4Q335.6 235.0 335.1 236.1Q334.6 237.2 334.6 238.7L334.6 238.7Q334.6 240.2 335.1 241.3Q335.6 242.5 336.5 243.1Q337.3 243.7 338.5 243.7L338.5 243.7Q339.3 243.7 340.0 243.4Q340.6 243.2 341.0 242.7Q341.5 242.1 341.7 241.4L341.7 241.4L343.7 241.4Q343.5 242.6 342.8 243.5Q342.2 244.4 341.1 245.0Q340.0 245.5 338.5 245.5ZM351.9 245.5L351.9 245.5Q350.2 245.5 348.8 244.7Q347.5 243.8 346.7 242.3Q346 240.8 346 238.8L346 238.8Q346 236.7 346.7 235.2Q347.5 233.7 348.8 232.8Q350.2 232.0 351.9 232.0L351.9 232.0Q353.7 232.0 355.0 232.8Q356.4 233.7 357.1 235.2Q357.9 236.7 357.9 238.8L357.9 238.8Q357.9 240.8 357.1 242.3Q356.4 243.8 355.0 244.7Q353.7 245.5 351.9 245.5ZM351.9 243.7L351.9 243.7Q353.3 243.7 354.1 243.0Q355.0 242.3 355.4 241.2Q355.9 240.1 355.9 238.8L355.9 238.8Q355.9 237.5 355.4 236.3Q355.0 235.2 354.1 234.5Q353.3 233.8 351.9 233.8L351.9 233.8Q350.6 233.8 349.7 234.5Q348.8 235.2 348.4 236.3Q348.0 237.5 348.0 238.8L348.0 238.8Q348.0 240.1 348.4 241.2Q348.8 242.3 349.7 243.0Q350.6 243.7 351.9 243.7ZM365.9 245.5L365.9 245.5Q364.2 245.5 363.0 244.7Q361.7 243.9 361.0 242.3Q360.3 240.8 360.3 238.7L360.3 238.7Q360.3 236.7 361.0 235.2Q361.7 233.6 363.0 232.8Q364.3 232.0 365.9 232.0L365.9 232.0Q367.2 232.0 367.9 232.4Q368.7 232.8 369.1 233.4Q369.5 233.9 369.7 234.2L369.7 234.2L369.9 234.2L369.9 227.8L371.9 227.8L371.9 245.3L369.9 245.3L369.9 243.2L369.7 243.2Q369.5 243.6 369.1 244.1Q368.7 244.7 367.9 245.1Q367.1 245.5 365.9 245.5ZM366.1 243.7L366.1 243.7Q367.4 243.7 368.2 243.1Q369.0 242.4 369.5 241.3Q369.9 240.2 369.9 238.7L369.9 238.7Q369.9 237.2 369.5 236.1Q369.0 235.0 368.2 234.4Q367.4 233.8 366.1 233.8L366.1 233.8Q364.9 233.8 364.0 234.4Q363.2 235.1 362.8 236.2Q362.3 237.3 362.3 238.7L362.3 238.7Q362.3 240.1 362.8 241.2Q363.2 242.4 364.0 243.0Q364.9 243.7 366.1 243.7ZM381.3 245.5L381.3 245.5Q379.4 245.5 378.1 244.7Q376.7 243.8 376.0 242.3Q375.2 240.8 375.2 238.8L375.2 238.8Q375.2 236.8 376.0 235.3Q376.7 233.7 378.0 232.9Q379.3 232.0 381.1 232.0L381.1 232.0Q382.1 232.0 383.1 232.3Q384.1 232.7 384.9 233.4Q385.8 234.2 386.3 235.4Q386.7 236.7 386.7 238.5L386.7 238.5L386.7 239.4L376.6 239.4L376.6 237.6L384.7 237.6Q384.7 236.5 384.3 235.7Q383.8 234.8 383.0 234.3Q382.2 233.8 381.1 233.8L381.1 233.8Q379.9 233.8 379.0 234.4Q378.2 235.0 377.7 235.9Q377.2 236.9 377.2 238.0L377.2 238.0L377.2 239.1Q377.2 240.6 377.7 241.6Q378.3 242.7 379.2 243.2Q380.1 243.7 381.3 243.7L381.3 243.7Q382.1 243.7 382.8 243.5Q383.4 243.3 383.9 242.8Q384.3 242.4 384.6 241.7L384.6 241.7L386.5 242.2Q386.2 243.2 385.5 244.0Q384.8 244.7 383.7 245.1Q382.6 245.5 381.3 245.5Z M401.5 245.3L399.5 245.3L395.5 232.2L397.6 232.2L400.5 242.2L400.6 242.2L403.4 232.2L405.6 232.2L408.3 242.1L408.5 242.1L411.3 232.2L413.4 232.2L409.4 245.3L407.4 245.3L404.6 235.2L404.4 235.2L401.5 245.3ZM418.1 245.3L416.1 245.3L416.1 232.2L418.1 232.2L418.1 245.3ZM417.1 230.0L417.1 230.0Q416.5 230.0 416.1 229.6Q415.6 229.2 415.6 228.6L415.6 228.6Q415.6 228.1 416.1 227.7Q416.5 227.3 417.1 227.3L417.1 227.3Q417.7 227.3 418.1 227.7Q418.5 228.1 418.5 228.6L418.5 228.6Q418.5 229.2 418.1 229.6Q417.7 230.0 417.1 230.0ZM420.7 232.2L427.4 232.2L427.4 233.9L420.7 233.9L420.7 232.2ZM422.6 242.0L422.6 229.0L424.6 229.0L424.6 241.5Q424.6 242.4 424.9 242.8Q425.2 243.2 425.5 243.3Q425.9 243.5 426.4 243.5L426.4 243.5Q426.7 243.5 426.9 243.4Q427.1 243.4 427.3 243.4L427.3 243.4L427.7 245.2Q427.5 245.3 427.1 245.3Q426.7 245.4 426.2 245.4L426.2 245.4Q425.3 245.4 424.5 245.1Q423.7 244.7 423.2 243.9Q422.6 243.2 422.6 242.0L422.6 242.0ZM432.8 237.4L432.8 237.4L432.8 245.3L430.8 245.3L430.8 227.8L432.8 227.8L432.8 234.2L432.9 234.2Q433.4 233.2 434.3 232.6Q435.2 232.0 436.8 232.0L436.8 232.0Q438.1 232.0 439.1 232.5Q440.1 233.1 440.7 234.1Q441.3 235.2 441.3 236.9L441.3 236.9L441.3 245.3L439.2 245.3L439.2 237.1Q439.2 235.5 438.4 234.7Q437.6 233.8 436.2 233.8L436.2 233.8Q435.2 233.8 434.4 234.2Q433.7 234.6 433.2 235.4Q432.8 236.2 432.8 237.4Z M456.7 245.5L456.7 245.5Q455.0 245.5 453.6 244.7Q452.3 243.8 451.5 242.3Q450.8 240.8 450.8 238.8L450.8 238.8Q450.8 236.7 451.5 235.2Q452.3 233.7 453.6 232.8Q455.0 232.0 456.7 232.0L456.7 232.0Q458.5 232.0 459.8 232.8Q461.2 233.7 461.9 235.2Q462.7 236.7 462.7 238.8L462.7 238.8Q462.7 240.8 461.9 242.3Q461.2 243.8 459.8 244.7Q458.5 245.5 456.7 245.5ZM456.7 243.7L456.7 243.7Q458.1 243.7 458.9 243.0Q459.8 242.3 460.2 241.2Q460.6 240.1 460.6 238.8L460.6 238.8Q460.6 237.5 460.2 236.3Q459.8 235.2 458.9 234.5Q458.1 233.8 456.7 233.8L456.7 233.8Q455.4 233.8 454.5 234.5Q453.6 235.2 453.2 236.3Q452.8 237.5 452.8 238.8L452.8 238.8Q452.8 240.1 453.2 241.2Q453.6 242.3 454.5 243.0Q455.4 243.7 456.7 243.7ZM467.7 237.4L467.7 237.4L467.7 245.3L465.7 245.3L465.7 232.2L467.7 232.2L467.7 234.2L467.8 234.2Q468.3 233.2 469.2 232.6Q470.2 232.0 471.7 232.0L471.7 232.0Q473.0 232.0 474.0 232.5Q475.0 233.1 475.5 234.2Q476.1 235.3 476.1 236.9L476.1 236.9L476.1 245.3L474.1 245.3L474.1 237.1Q474.1 235.5 473.3 234.7Q472.5 233.8 471.1 233.8L471.1 233.8Q470.1 233.8 469.4 234.2Q468.6 234.6 468.2 235.4Q467.7 236.2 467.7 237.4ZM485.3 245.5L485.3 245.5Q483.4 245.5 482.0 244.7Q480.6 243.8 479.9 242.3Q479.2 240.8 479.2 238.8L479.2 238.8Q479.2 236.8 479.9 235.3Q480.6 233.7 482.0 232.9Q483.3 232.0 485.1 232.0L485.1 232.0Q486.1 232.0 487.1 232.3Q488.1 232.7 488.9 233.4Q489.7 234.2 490.2 235.4Q490.7 236.7 490.7 238.5L490.7 238.5L490.7 239.4L480.6 239.4L480.6 237.6L488.6 237.6Q488.6 236.5 488.2 235.7Q487.8 234.8 487.0 234.3Q486.1 233.8 485.1 233.8L485.1 233.8Q483.9 233.8 483.0 234.4Q482.1 235.0 481.6 235.9Q481.2 236.9 481.2 238.0L481.2 238.0L481.2 239.1Q481.2 240.6 481.7 241.6Q482.2 242.7 483.1 243.2Q484.0 243.7 485.3 243.7L485.3 243.7Q486.1 243.7 486.7 243.5Q487.3 243.3 487.8 242.8Q488.3 242.4 488.5 241.7L488.5 241.7L490.5 242.2Q490.2 243.2 489.4 244.0Q488.7 244.7 487.7 245.1Q486.6 245.5 485.3 245.5Z M505.8 245.5L505.8 245.5Q504.0 245.5 502.6 244.7Q501.3 243.8 500.6 242.3Q499.9 240.7 499.9 238.8L499.9 238.8Q499.9 236.8 500.6 235.2Q501.4 233.7 502.7 232.9Q504.0 232.0 505.8 232.0L505.8 232.0Q507.2 232.0 508.3 232.5Q509.4 233.0 510.1 233.9Q510.8 234.9 511.0 236.1L511.0 236.1L509.0 236.1Q508.7 235.2 507.9 234.5Q507.1 233.8 505.8 233.8L505.8 233.8Q504.6 233.8 503.8 234.4Q502.9 235.0 502.4 236.1Q501.9 237.2 501.9 238.7L501.9 238.7Q501.9 240.2 502.4 241.3Q502.9 242.5 503.7 243.1Q504.6 243.7 505.8 243.7L505.8 243.7Q506.6 243.7 507.2 243.4Q507.9 243.2 508.3 242.7Q508.8 242.1 509.0 241.4L509.0 241.4L511.0 241.4Q510.8 242.6 510.1 243.5Q509.5 244.4 508.4 245.0Q507.3 245.5 505.8 245.5ZM513.9 227.8L515.9 227.8L515.9 245.3L513.9 245.3L513.9 227.8ZM521.6 245.3L519.6 245.3L519.6 232.2L521.6 232.2L521.6 245.3ZM520.6 230.0L520.6 230.0Q520.0 230.0 519.6 229.6Q519.2 229.2 519.2 228.6L519.2 228.6Q519.2 228.1 519.6 227.7Q520.0 227.3 520.6 227.3L520.6 227.3Q521.2 227.3 521.6 227.7Q522.0 228.1 522.0 228.6L522.0 228.6Q522.0 229.2 521.6 229.6Q521.2 230.0 520.6 230.0ZM530.6 245.5L530.6 245.5Q528.8 245.5 527.4 244.7Q526.1 243.8 525.4 242.3Q524.7 240.7 524.7 238.8L524.7 238.8Q524.7 236.8 525.4 235.2Q526.1 233.7 527.5 232.9Q528.8 232.0 530.6 232.0L530.6 232.0Q531.9 232.0 533.1 232.5Q534.2 233.0 534.9 233.9Q535.6 234.9 535.8 236.1L535.8 236.1L533.7 236.1Q533.5 235.2 532.7 234.5Q531.9 233.8 530.6 233.8L530.6 233.8Q529.4 233.8 528.5 234.4Q527.7 235.0 527.2 236.1Q526.7 237.2 526.7 238.7L526.7 238.7Q526.7 240.2 527.2 241.3Q527.6 242.5 528.5 243.1Q529.4 243.7 530.6 243.7L530.6 243.7Q531.4 243.7 532.0 243.4Q532.7 243.2 533.1 242.7Q533.6 242.1 533.7 241.4L533.7 241.4L535.8 241.4Q535.6 242.6 534.9 243.5Q534.2 244.4 533.1 245.0Q532.1 245.5 530.6 245.5ZM542.9 238.3L540.6 240.5L540.5 238.0L540.9 238.0L546.7 232.2L549.1 232.2L543.0 238.3L542.9 238.3ZM540.7 245.3L538.7 245.3L538.7 227.8L540.7 227.8L540.7 245.3ZM549.6 245.3L547 245.3L541.9 238.8L543.3 237.4L549.6 245.3ZM553.2 245.4L553.2 245.4Q552.6 245.4 552.1 244.9Q551.7 244.5 551.7 243.9L551.7 243.9Q551.7 243.2 552.1 242.8Q552.6 242.3 553.2 242.3L553.2 242.3Q553.8 242.3 554.3 242.8Q554.7 243.2 554.7 243.9L554.7 243.9Q554.7 244.3 554.5 244.6Q554.3 245.0 554.0 245.2Q553.6 245.4 553.2 245.4Z "/></svg>